%TF.GenerationSoftware,KiCad,Pcbnew,9.0.9*%
%TF.CreationDate,2026-08-30T17:26:38+02:00*%
%TF.ProjectId,PUS_K9,5055535f-4b39-42e6-9b69-6361645f7063,0.3*%
%TF.SameCoordinates,Original*%
%TF.FileFunction,Soldermask,Top*%
%TF.FilePolarity,Negative*%
%FSLAX46Y46*%
G04 Gerber Fmt 4.6, Leading zero omitted, Abs format (unit mm)*
G04 Created by KiCad (PCBNEW 9.0.9) date 2026-08-30 17:26:38*
%MOMM*%
%LPD*%
G01*
G04 APERTURE LIST*
G04 Aperture macros list*
%AMRoundRect*
0 Rectangle with rounded corners*
0 $1 Rounding radius*
0 $2 $3 $4 $5 $6 $7 $8 $9 X,Y pos of 4 corners*
0 Add a 4 corners polygon primitive as box body*
4,1,4,$2,$3,$4,$5,$6,$7,$8,$9,$2,$3,0*
0 Add four circle primitives for the rounded corners*
1,1,$1+$1,$2,$3*
1,1,$1+$1,$4,$5*
1,1,$1+$1,$6,$7*
1,1,$1+$1,$8,$9*
0 Add four rect primitives between the rounded corners*
20,1,$1+$1,$2,$3,$4,$5,0*
20,1,$1+$1,$4,$5,$6,$7,0*
20,1,$1+$1,$6,$7,$8,$9,0*
20,1,$1+$1,$8,$9,$2,$3,0*%
G04 Aperture macros list end*
%ADD10R,1.700000X1.700000*%
%ADD11C,1.400000*%
%ADD12C,2.200000*%
%ADD13R,1.800000X1.800000*%
%ADD14C,1.800000*%
%ADD15C,1.600000*%
%ADD16R,1.600000X1.600000*%
%ADD17C,4.000000*%
%ADD18RoundRect,0.250000X-0.550000X-0.550000X0.550000X-0.550000X0.550000X0.550000X-0.550000X0.550000X0*%
%ADD19C,1.700000*%
%ADD20RoundRect,0.250000X-0.550000X0.550000X-0.550000X-0.550000X0.550000X-0.550000X0.550000X0.550000X0*%
G04 APERTURE END LIST*
D10*
%TO.C,J8*%
X170000000Y-91000000D03*
%TD*%
D11*
%TO.C,R2*%
X142500000Y-85380000D03*
X142500000Y-93000000D03*
%TD*%
D12*
%TO.C,REF\u002A\u002A*%
X138500000Y-101500000D03*
%TD*%
D11*
%TO.C,R3*%
X154500000Y-85380000D03*
X154500000Y-93000000D03*
%TD*%
%TO.C,R4*%
X173000000Y-84500000D03*
X173000000Y-92120000D03*
%TD*%
D13*
%TO.C,D3*%
X173000000Y-97000000D03*
D14*
X170460000Y-97000000D03*
%TD*%
D10*
%TO.C,J6*%
X155000000Y-100000000D03*
%TD*%
%TO.C,J10*%
X178500000Y-102500000D03*
%TD*%
%TO.C,J2*%
X166000000Y-79500000D03*
%TD*%
D15*
%TO.C,C1*%
X166000000Y-98000000D03*
X161000000Y-98000000D03*
%TD*%
D11*
%TO.C,R5*%
X175880000Y-97000000D03*
X183500000Y-97000000D03*
%TD*%
D10*
%TO.C,J5*%
X177500000Y-80500000D03*
%TD*%
D11*
%TO.C,R1*%
X132000000Y-93310000D03*
X132000000Y-85690000D03*
%TD*%
D16*
%TO.C,J1*%
X123360000Y-90750000D03*
D15*
X123360000Y-88250000D03*
X121360000Y-88250000D03*
X121360000Y-90750000D03*
D17*
X118500000Y-95500000D03*
X118500000Y-83500000D03*
%TD*%
D12*
%TO.C,REF\u002A\u002A*%
X151000000Y-82500000D03*
%TD*%
D18*
%TO.C,U1*%
X159380000Y-85880000D03*
D15*
X159380000Y-88420000D03*
X159380000Y-90960000D03*
X159380000Y-93500000D03*
X167000000Y-93500000D03*
X167000000Y-90960000D03*
X167000000Y-88420000D03*
X167000000Y-85880000D03*
%TD*%
D12*
%TO.C,REF\u002A\u002A*%
X181500000Y-84500000D03*
%TD*%
D10*
%TO.C,SW1*%
X177500000Y-90500000D03*
D19*
X177500000Y-87960000D03*
%TD*%
D20*
%TO.C,D2*%
X147500000Y-85380000D03*
D15*
X147500000Y-93000000D03*
%TD*%
D10*
%TO.C,J4*%
X142500000Y-96000000D03*
%TD*%
%TO.C,J9*%
X159500000Y-82000000D03*
%TD*%
D20*
%TO.C,D1*%
X137500000Y-85880000D03*
D15*
X137500000Y-93500000D03*
%TD*%
D10*
%TO.C,J3*%
X151500000Y-93000000D03*
%TD*%
M02*
