%TF.GenerationSoftware,KiCad,Pcbnew,9.0.9*%
%TF.CreationDate,2026-08-30T17:26:38+02:00*%
%TF.ProjectId,PUS_K9,5055535f-4b39-42e6-9b69-6361645f7063,0.3*%
%TF.SameCoordinates,Original*%
%TF.FileFunction,Legend,Top*%
%TF.FilePolarity,Positive*%
%FSLAX46Y46*%
G04 Gerber Fmt 4.6, Leading zero omitted, Abs format (unit mm)*
G04 Created by KiCad (PCBNEW 9.0.9) date 2026-08-30 17:26:38*
%MOMM*%
%LPD*%
G01*
G04 APERTURE LIST*
%ADD10C,0.100000*%
%ADD11C,0.187500*%
%ADD12C,0.150000*%
%ADD13C,0.120000*%
%ADD14C,0.000000*%
G04 APERTURE END LIST*
D10*
X134500000Y-99000000D02*
X140500000Y-96500000D01*
X145500000Y-100000000D02*
X149500000Y-94380000D01*
D11*
X133480497Y-99806678D02*
X133480497Y-98306678D01*
X133480497Y-98306678D02*
X133837640Y-98306678D01*
X133837640Y-98306678D02*
X134051926Y-98378107D01*
X134051926Y-98378107D02*
X134194783Y-98520964D01*
X134194783Y-98520964D02*
X134266212Y-98663821D01*
X134266212Y-98663821D02*
X134337640Y-98949535D01*
X134337640Y-98949535D02*
X134337640Y-99163821D01*
X134337640Y-99163821D02*
X134266212Y-99449535D01*
X134266212Y-99449535D02*
X134194783Y-99592392D01*
X134194783Y-99592392D02*
X134051926Y-99735250D01*
X134051926Y-99735250D02*
X133837640Y-99806678D01*
X133837640Y-99806678D02*
X133480497Y-99806678D01*
X134980497Y-99235250D02*
X136123355Y-99235250D01*
X143980497Y-101806678D02*
X143980497Y-100306678D01*
X143980497Y-100306678D02*
X144337640Y-100306678D01*
X144337640Y-100306678D02*
X144551926Y-100378107D01*
X144551926Y-100378107D02*
X144694783Y-100520964D01*
X144694783Y-100520964D02*
X144766212Y-100663821D01*
X144766212Y-100663821D02*
X144837640Y-100949535D01*
X144837640Y-100949535D02*
X144837640Y-101163821D01*
X144837640Y-101163821D02*
X144766212Y-101449535D01*
X144766212Y-101449535D02*
X144694783Y-101592392D01*
X144694783Y-101592392D02*
X144551926Y-101735250D01*
X144551926Y-101735250D02*
X144337640Y-101806678D01*
X144337640Y-101806678D02*
X143980497Y-101806678D01*
X145480497Y-101235250D02*
X146623355Y-101235250D01*
X146051926Y-101806678D02*
X146051926Y-100663821D01*
X149766212Y-99378107D02*
X149623355Y-99306678D01*
X149623355Y-99306678D02*
X149409069Y-99306678D01*
X149409069Y-99306678D02*
X149194783Y-99378107D01*
X149194783Y-99378107D02*
X149051926Y-99520964D01*
X149051926Y-99520964D02*
X148980497Y-99663821D01*
X148980497Y-99663821D02*
X148909069Y-99949535D01*
X148909069Y-99949535D02*
X148909069Y-100163821D01*
X148909069Y-100163821D02*
X148980497Y-100449535D01*
X148980497Y-100449535D02*
X149051926Y-100592392D01*
X149051926Y-100592392D02*
X149194783Y-100735250D01*
X149194783Y-100735250D02*
X149409069Y-100806678D01*
X149409069Y-100806678D02*
X149551926Y-100806678D01*
X149551926Y-100806678D02*
X149766212Y-100735250D01*
X149766212Y-100735250D02*
X149837640Y-100663821D01*
X149837640Y-100663821D02*
X149837640Y-100163821D01*
X149837640Y-100163821D02*
X149551926Y-100163821D01*
X150480497Y-100806678D02*
X150480497Y-99306678D01*
X150480497Y-99306678D02*
X151337640Y-100806678D01*
X151337640Y-100806678D02*
X151337640Y-99306678D01*
X152051926Y-100806678D02*
X152051926Y-99306678D01*
X152051926Y-99306678D02*
X152409069Y-99306678D01*
X152409069Y-99306678D02*
X152623355Y-99378107D01*
X152623355Y-99378107D02*
X152766212Y-99520964D01*
X152766212Y-99520964D02*
X152837641Y-99663821D01*
X152837641Y-99663821D02*
X152909069Y-99949535D01*
X152909069Y-99949535D02*
X152909069Y-100163821D01*
X152909069Y-100163821D02*
X152837641Y-100449535D01*
X152837641Y-100449535D02*
X152766212Y-100592392D01*
X152766212Y-100592392D02*
X152623355Y-100735250D01*
X152623355Y-100735250D02*
X152409069Y-100806678D01*
X152409069Y-100806678D02*
X152051926Y-100806678D01*
X159980497Y-78235250D02*
X161123355Y-78235250D01*
X160551926Y-78806678D02*
X160551926Y-77663821D01*
X162551926Y-77306678D02*
X161837640Y-77306678D01*
X161837640Y-77306678D02*
X161766212Y-78020964D01*
X161766212Y-78020964D02*
X161837640Y-77949535D01*
X161837640Y-77949535D02*
X161980498Y-77878107D01*
X161980498Y-77878107D02*
X162337640Y-77878107D01*
X162337640Y-77878107D02*
X162480498Y-77949535D01*
X162480498Y-77949535D02*
X162551926Y-78020964D01*
X162551926Y-78020964D02*
X162623355Y-78163821D01*
X162623355Y-78163821D02*
X162623355Y-78520964D01*
X162623355Y-78520964D02*
X162551926Y-78663821D01*
X162551926Y-78663821D02*
X162480498Y-78735250D01*
X162480498Y-78735250D02*
X162337640Y-78806678D01*
X162337640Y-78806678D02*
X161980498Y-78806678D01*
X161980498Y-78806678D02*
X161837640Y-78735250D01*
X161837640Y-78735250D02*
X161766212Y-78663821D01*
X163051926Y-77306678D02*
X163551926Y-78806678D01*
X163551926Y-78806678D02*
X164051926Y-77306678D01*
X172909069Y-81235250D02*
X173123355Y-81306678D01*
X173123355Y-81306678D02*
X173480497Y-81306678D01*
X173480497Y-81306678D02*
X173623355Y-81235250D01*
X173623355Y-81235250D02*
X173694783Y-81163821D01*
X173694783Y-81163821D02*
X173766212Y-81020964D01*
X173766212Y-81020964D02*
X173766212Y-80878107D01*
X173766212Y-80878107D02*
X173694783Y-80735250D01*
X173694783Y-80735250D02*
X173623355Y-80663821D01*
X173623355Y-80663821D02*
X173480497Y-80592392D01*
X173480497Y-80592392D02*
X173194783Y-80520964D01*
X173194783Y-80520964D02*
X173051926Y-80449535D01*
X173051926Y-80449535D02*
X172980497Y-80378107D01*
X172980497Y-80378107D02*
X172909069Y-80235250D01*
X172909069Y-80235250D02*
X172909069Y-80092392D01*
X172909069Y-80092392D02*
X172980497Y-79949535D01*
X172980497Y-79949535D02*
X173051926Y-79878107D01*
X173051926Y-79878107D02*
X173194783Y-79806678D01*
X173194783Y-79806678D02*
X173551926Y-79806678D01*
X173551926Y-79806678D02*
X173766212Y-79878107D01*
X174266211Y-79806678D02*
X174623354Y-81306678D01*
X174623354Y-81306678D02*
X174909068Y-80235250D01*
X174909068Y-80235250D02*
X175194783Y-81306678D01*
X175194783Y-81306678D02*
X175551926Y-79806678D01*
X111504307Y-103150250D02*
X111790021Y-103245488D01*
X111790021Y-103245488D02*
X112266212Y-103245488D01*
X112266212Y-103245488D02*
X112456688Y-103150250D01*
X112456688Y-103150250D02*
X112551926Y-103055011D01*
X112551926Y-103055011D02*
X112647164Y-102864535D01*
X112647164Y-102864535D02*
X112647164Y-102674059D01*
X112647164Y-102674059D02*
X112551926Y-102483583D01*
X112551926Y-102483583D02*
X112456688Y-102388345D01*
X112456688Y-102388345D02*
X112266212Y-102293107D01*
X112266212Y-102293107D02*
X111885259Y-102197869D01*
X111885259Y-102197869D02*
X111694783Y-102102630D01*
X111694783Y-102102630D02*
X111599545Y-102007392D01*
X111599545Y-102007392D02*
X111504307Y-101816916D01*
X111504307Y-101816916D02*
X111504307Y-101626440D01*
X111504307Y-101626440D02*
X111599545Y-101435964D01*
X111599545Y-101435964D02*
X111694783Y-101340726D01*
X111694783Y-101340726D02*
X111885259Y-101245488D01*
X111885259Y-101245488D02*
X112361450Y-101245488D01*
X112361450Y-101245488D02*
X112647164Y-101340726D01*
X113218593Y-101245488D02*
X114361450Y-101245488D01*
X113790021Y-103245488D02*
X113790021Y-101245488D01*
X115028117Y-103245488D02*
X115028117Y-101245488D01*
X115885260Y-101435964D02*
X115980498Y-101340726D01*
X115980498Y-101340726D02*
X116170974Y-101245488D01*
X116170974Y-101245488D02*
X116647165Y-101245488D01*
X116647165Y-101245488D02*
X116837641Y-101340726D01*
X116837641Y-101340726D02*
X116932879Y-101435964D01*
X116932879Y-101435964D02*
X117028117Y-101626440D01*
X117028117Y-101626440D02*
X117028117Y-101816916D01*
X117028117Y-101816916D02*
X116932879Y-102102630D01*
X116932879Y-102102630D02*
X115790022Y-103245488D01*
X115790022Y-103245488D02*
X117028117Y-103245488D01*
X117885260Y-103245488D02*
X117885260Y-101245488D01*
X117885260Y-101245488D02*
X118361450Y-101245488D01*
X118361450Y-101245488D02*
X118647165Y-101340726D01*
X118647165Y-101340726D02*
X118837641Y-101531202D01*
X118837641Y-101531202D02*
X118932879Y-101721678D01*
X118932879Y-101721678D02*
X119028117Y-102102630D01*
X119028117Y-102102630D02*
X119028117Y-102388345D01*
X119028117Y-102388345D02*
X118932879Y-102769297D01*
X118932879Y-102769297D02*
X118837641Y-102959773D01*
X118837641Y-102959773D02*
X118647165Y-103150250D01*
X118647165Y-103150250D02*
X118361450Y-103245488D01*
X118361450Y-103245488D02*
X117885260Y-103245488D01*
X119885260Y-102483583D02*
X121409070Y-102483583D01*
X122266212Y-103150250D02*
X122551926Y-103245488D01*
X122551926Y-103245488D02*
X123028117Y-103245488D01*
X123028117Y-103245488D02*
X123218593Y-103150250D01*
X123218593Y-103150250D02*
X123313831Y-103055011D01*
X123313831Y-103055011D02*
X123409069Y-102864535D01*
X123409069Y-102864535D02*
X123409069Y-102674059D01*
X123409069Y-102674059D02*
X123313831Y-102483583D01*
X123313831Y-102483583D02*
X123218593Y-102388345D01*
X123218593Y-102388345D02*
X123028117Y-102293107D01*
X123028117Y-102293107D02*
X122647164Y-102197869D01*
X122647164Y-102197869D02*
X122456688Y-102102630D01*
X122456688Y-102102630D02*
X122361450Y-102007392D01*
X122361450Y-102007392D02*
X122266212Y-101816916D01*
X122266212Y-101816916D02*
X122266212Y-101626440D01*
X122266212Y-101626440D02*
X122361450Y-101435964D01*
X122361450Y-101435964D02*
X122456688Y-101340726D01*
X122456688Y-101340726D02*
X122647164Y-101245488D01*
X122647164Y-101245488D02*
X123123355Y-101245488D01*
X123123355Y-101245488D02*
X123409069Y-101340726D01*
X124266212Y-103245488D02*
X124266212Y-101245488D01*
X125218593Y-103245488D02*
X125218593Y-101245488D01*
X125218593Y-101245488D02*
X126361450Y-103245488D01*
X126361450Y-103245488D02*
X126361450Y-101245488D01*
X127313831Y-102483583D02*
X128837641Y-102483583D01*
X129790021Y-103245488D02*
X129790021Y-101245488D01*
X130647164Y-103150250D02*
X130932878Y-103245488D01*
X130932878Y-103245488D02*
X131409069Y-103245488D01*
X131409069Y-103245488D02*
X131599545Y-103150250D01*
X131599545Y-103150250D02*
X131694783Y-103055011D01*
X131694783Y-103055011D02*
X131790021Y-102864535D01*
X131790021Y-102864535D02*
X131790021Y-102674059D01*
X131790021Y-102674059D02*
X131694783Y-102483583D01*
X131694783Y-102483583D02*
X131599545Y-102388345D01*
X131599545Y-102388345D02*
X131409069Y-102293107D01*
X131409069Y-102293107D02*
X131028116Y-102197869D01*
X131028116Y-102197869D02*
X130837640Y-102102630D01*
X130837640Y-102102630D02*
X130742402Y-102007392D01*
X130742402Y-102007392D02*
X130647164Y-101816916D01*
X130647164Y-101816916D02*
X130647164Y-101626440D01*
X130647164Y-101626440D02*
X130742402Y-101435964D01*
X130742402Y-101435964D02*
X130837640Y-101340726D01*
X130837640Y-101340726D02*
X131028116Y-101245488D01*
X131028116Y-101245488D02*
X131504307Y-101245488D01*
X131504307Y-101245488D02*
X131790021Y-101340726D01*
X132647164Y-103245488D02*
X132647164Y-101245488D01*
X132647164Y-101245488D02*
X133790021Y-103245488D01*
X133790021Y-103245488D02*
X133790021Y-101245488D01*
X158409069Y-101123107D02*
X158694783Y-101123107D01*
X158694783Y-101123107D02*
X158980497Y-101265964D01*
X158980497Y-101265964D02*
X159123355Y-101408821D01*
X159123355Y-101408821D02*
X159266212Y-101694535D01*
X159266212Y-101694535D02*
X159409069Y-102265964D01*
X159409069Y-102265964D02*
X159409069Y-102980250D01*
X159409069Y-102980250D02*
X159266212Y-103551678D01*
X159266212Y-103551678D02*
X159123355Y-103837392D01*
X159123355Y-103837392D02*
X158980497Y-103980250D01*
X158980497Y-103980250D02*
X158694783Y-104123107D01*
X158694783Y-104123107D02*
X158409069Y-104123107D01*
X158409069Y-104123107D02*
X158123355Y-103980250D01*
X158123355Y-103980250D02*
X157980497Y-103837392D01*
X157980497Y-103837392D02*
X157837640Y-103551678D01*
X157837640Y-103551678D02*
X157694783Y-102980250D01*
X157694783Y-102980250D02*
X157694783Y-102265964D01*
X157694783Y-102265964D02*
X157837640Y-101694535D01*
X157837640Y-101694535D02*
X157980497Y-101408821D01*
X157980497Y-101408821D02*
X158123355Y-101265964D01*
X158123355Y-101265964D02*
X158409069Y-101123107D01*
X161123355Y-102408821D02*
X160837640Y-102265964D01*
X160837640Y-102265964D02*
X160694783Y-102123107D01*
X160694783Y-102123107D02*
X160551926Y-101837392D01*
X160551926Y-101837392D02*
X160551926Y-101694535D01*
X160551926Y-101694535D02*
X160694783Y-101408821D01*
X160694783Y-101408821D02*
X160837640Y-101265964D01*
X160837640Y-101265964D02*
X161123355Y-101123107D01*
X161123355Y-101123107D02*
X161694783Y-101123107D01*
X161694783Y-101123107D02*
X161980498Y-101265964D01*
X161980498Y-101265964D02*
X162123355Y-101408821D01*
X162123355Y-101408821D02*
X162266212Y-101694535D01*
X162266212Y-101694535D02*
X162266212Y-101837392D01*
X162266212Y-101837392D02*
X162123355Y-102123107D01*
X162123355Y-102123107D02*
X161980498Y-102265964D01*
X161980498Y-102265964D02*
X161694783Y-102408821D01*
X161694783Y-102408821D02*
X161123355Y-102408821D01*
X161123355Y-102408821D02*
X160837640Y-102551678D01*
X160837640Y-102551678D02*
X160694783Y-102694535D01*
X160694783Y-102694535D02*
X160551926Y-102980250D01*
X160551926Y-102980250D02*
X160551926Y-103551678D01*
X160551926Y-103551678D02*
X160694783Y-103837392D01*
X160694783Y-103837392D02*
X160837640Y-103980250D01*
X160837640Y-103980250D02*
X161123355Y-104123107D01*
X161123355Y-104123107D02*
X161694783Y-104123107D01*
X161694783Y-104123107D02*
X161980498Y-103980250D01*
X161980498Y-103980250D02*
X162123355Y-103837392D01*
X162123355Y-103837392D02*
X162266212Y-103551678D01*
X162266212Y-103551678D02*
X162266212Y-102980250D01*
X162266212Y-102980250D02*
X162123355Y-102694535D01*
X162123355Y-102694535D02*
X161980498Y-102551678D01*
X161980498Y-102551678D02*
X161694783Y-102408821D01*
X165694783Y-100980250D02*
X163123355Y-104837392D01*
X166551926Y-101408821D02*
X166694783Y-101265964D01*
X166694783Y-101265964D02*
X166980498Y-101123107D01*
X166980498Y-101123107D02*
X167694783Y-101123107D01*
X167694783Y-101123107D02*
X167980498Y-101265964D01*
X167980498Y-101265964D02*
X168123355Y-101408821D01*
X168123355Y-101408821D02*
X168266212Y-101694535D01*
X168266212Y-101694535D02*
X168266212Y-101980250D01*
X168266212Y-101980250D02*
X168123355Y-102408821D01*
X168123355Y-102408821D02*
X166409069Y-104123107D01*
X166409069Y-104123107D02*
X168266212Y-104123107D01*
X170837641Y-101123107D02*
X170266212Y-101123107D01*
X170266212Y-101123107D02*
X169980498Y-101265964D01*
X169980498Y-101265964D02*
X169837641Y-101408821D01*
X169837641Y-101408821D02*
X169551926Y-101837392D01*
X169551926Y-101837392D02*
X169409069Y-102408821D01*
X169409069Y-102408821D02*
X169409069Y-103551678D01*
X169409069Y-103551678D02*
X169551926Y-103837392D01*
X169551926Y-103837392D02*
X169694783Y-103980250D01*
X169694783Y-103980250D02*
X169980498Y-104123107D01*
X169980498Y-104123107D02*
X170551926Y-104123107D01*
X170551926Y-104123107D02*
X170837641Y-103980250D01*
X170837641Y-103980250D02*
X170980498Y-103837392D01*
X170980498Y-103837392D02*
X171123355Y-103551678D01*
X171123355Y-103551678D02*
X171123355Y-102837392D01*
X171123355Y-102837392D02*
X170980498Y-102551678D01*
X170980498Y-102551678D02*
X170837641Y-102408821D01*
X170837641Y-102408821D02*
X170551926Y-102265964D01*
X170551926Y-102265964D02*
X169980498Y-102265964D01*
X169980498Y-102265964D02*
X169694783Y-102408821D01*
X169694783Y-102408821D02*
X169551926Y-102551678D01*
X169551926Y-102551678D02*
X169409069Y-102837392D01*
X112837640Y-80000726D02*
X112837640Y-76000726D01*
X112837640Y-76000726D02*
X113980497Y-76000726D01*
X113980497Y-76000726D02*
X114266212Y-76191202D01*
X114266212Y-76191202D02*
X114409069Y-76381678D01*
X114409069Y-76381678D02*
X114551926Y-76762630D01*
X114551926Y-76762630D02*
X114551926Y-77334059D01*
X114551926Y-77334059D02*
X114409069Y-77715011D01*
X114409069Y-77715011D02*
X114266212Y-77905488D01*
X114266212Y-77905488D02*
X113980497Y-78095964D01*
X113980497Y-78095964D02*
X112837640Y-78095964D01*
X116980497Y-79810250D02*
X116694783Y-80000726D01*
X116694783Y-80000726D02*
X116123355Y-80000726D01*
X116123355Y-80000726D02*
X115837640Y-79810250D01*
X115837640Y-79810250D02*
X115694783Y-79429297D01*
X115694783Y-79429297D02*
X115694783Y-77905488D01*
X115694783Y-77905488D02*
X115837640Y-77524535D01*
X115837640Y-77524535D02*
X116123355Y-77334059D01*
X116123355Y-77334059D02*
X116694783Y-77334059D01*
X116694783Y-77334059D02*
X116980497Y-77524535D01*
X116980497Y-77524535D02*
X117123355Y-77905488D01*
X117123355Y-77905488D02*
X117123355Y-78286440D01*
X117123355Y-78286440D02*
X115694783Y-78667392D01*
X116694783Y-75810250D02*
X116266212Y-76381678D01*
X119694784Y-80000726D02*
X119694784Y-76000726D01*
X119694784Y-79810250D02*
X119409069Y-80000726D01*
X119409069Y-80000726D02*
X118837641Y-80000726D01*
X118837641Y-80000726D02*
X118551926Y-79810250D01*
X118551926Y-79810250D02*
X118409069Y-79619773D01*
X118409069Y-79619773D02*
X118266212Y-79238821D01*
X118266212Y-79238821D02*
X118266212Y-78095964D01*
X118266212Y-78095964D02*
X118409069Y-77715011D01*
X118409069Y-77715011D02*
X118551926Y-77524535D01*
X118551926Y-77524535D02*
X118837641Y-77334059D01*
X118837641Y-77334059D02*
X119409069Y-77334059D01*
X119409069Y-77334059D02*
X119694784Y-77524535D01*
X122409070Y-80000726D02*
X122409070Y-77905488D01*
X122409070Y-77905488D02*
X122266212Y-77524535D01*
X122266212Y-77524535D02*
X121980498Y-77334059D01*
X121980498Y-77334059D02*
X121409070Y-77334059D01*
X121409070Y-77334059D02*
X121123355Y-77524535D01*
X122409070Y-79810250D02*
X122123355Y-80000726D01*
X122123355Y-80000726D02*
X121409070Y-80000726D01*
X121409070Y-80000726D02*
X121123355Y-79810250D01*
X121123355Y-79810250D02*
X120980498Y-79429297D01*
X120980498Y-79429297D02*
X120980498Y-79048345D01*
X120980498Y-79048345D02*
X121123355Y-78667392D01*
X121123355Y-78667392D02*
X121409070Y-78476916D01*
X121409070Y-78476916D02*
X122123355Y-78476916D01*
X122123355Y-78476916D02*
X122409070Y-78286440D01*
X124266213Y-80000726D02*
X123980498Y-79810250D01*
X123980498Y-79810250D02*
X123837641Y-79429297D01*
X123837641Y-79429297D02*
X123837641Y-76000726D01*
X126551927Y-79810250D02*
X126266213Y-80000726D01*
X126266213Y-80000726D02*
X125694785Y-80000726D01*
X125694785Y-80000726D02*
X125409070Y-79810250D01*
X125409070Y-79810250D02*
X125266213Y-79429297D01*
X125266213Y-79429297D02*
X125266213Y-77905488D01*
X125266213Y-77905488D02*
X125409070Y-77524535D01*
X125409070Y-77524535D02*
X125694785Y-77334059D01*
X125694785Y-77334059D02*
X126266213Y-77334059D01*
X126266213Y-77334059D02*
X126551927Y-77524535D01*
X126551927Y-77524535D02*
X126694785Y-77905488D01*
X126694785Y-77905488D02*
X126694785Y-78286440D01*
X126694785Y-78286440D02*
X125266213Y-78667392D01*
X130266213Y-76000726D02*
X130266213Y-79238821D01*
X130266213Y-79238821D02*
X130409070Y-79619773D01*
X130409070Y-79619773D02*
X130551928Y-79810250D01*
X130551928Y-79810250D02*
X130837642Y-80000726D01*
X130837642Y-80000726D02*
X131409070Y-80000726D01*
X131409070Y-80000726D02*
X131694785Y-79810250D01*
X131694785Y-79810250D02*
X131837642Y-79619773D01*
X131837642Y-79619773D02*
X131980499Y-79238821D01*
X131980499Y-79238821D02*
X131980499Y-76000726D01*
X133266213Y-79810250D02*
X133694785Y-80000726D01*
X133694785Y-80000726D02*
X134409070Y-80000726D01*
X134409070Y-80000726D02*
X134694785Y-79810250D01*
X134694785Y-79810250D02*
X134837642Y-79619773D01*
X134837642Y-79619773D02*
X134980499Y-79238821D01*
X134980499Y-79238821D02*
X134980499Y-78857869D01*
X134980499Y-78857869D02*
X134837642Y-78476916D01*
X134837642Y-78476916D02*
X134694785Y-78286440D01*
X134694785Y-78286440D02*
X134409070Y-78095964D01*
X134409070Y-78095964D02*
X133837642Y-77905488D01*
X133837642Y-77905488D02*
X133551927Y-77715011D01*
X133551927Y-77715011D02*
X133409070Y-77524535D01*
X133409070Y-77524535D02*
X133266213Y-77143583D01*
X133266213Y-77143583D02*
X133266213Y-76762630D01*
X133266213Y-76762630D02*
X133409070Y-76381678D01*
X133409070Y-76381678D02*
X133551927Y-76191202D01*
X133551927Y-76191202D02*
X133837642Y-76000726D01*
X133837642Y-76000726D02*
X134551927Y-76000726D01*
X134551927Y-76000726D02*
X134980499Y-76191202D01*
X137266213Y-77905488D02*
X137694785Y-78095964D01*
X137694785Y-78095964D02*
X137837642Y-78286440D01*
X137837642Y-78286440D02*
X137980499Y-78667392D01*
X137980499Y-78667392D02*
X137980499Y-79238821D01*
X137980499Y-79238821D02*
X137837642Y-79619773D01*
X137837642Y-79619773D02*
X137694785Y-79810250D01*
X137694785Y-79810250D02*
X137409070Y-80000726D01*
X137409070Y-80000726D02*
X136266213Y-80000726D01*
X136266213Y-80000726D02*
X136266213Y-76000726D01*
X136266213Y-76000726D02*
X137266213Y-76000726D01*
X137266213Y-76000726D02*
X137551928Y-76191202D01*
X137551928Y-76191202D02*
X137694785Y-76381678D01*
X137694785Y-76381678D02*
X137837642Y-76762630D01*
X137837642Y-76762630D02*
X137837642Y-77143583D01*
X137837642Y-77143583D02*
X137694785Y-77524535D01*
X137694785Y-77524535D02*
X137551928Y-77715011D01*
X137551928Y-77715011D02*
X137266213Y-77905488D01*
X137266213Y-77905488D02*
X136266213Y-77905488D01*
X141551927Y-77905488D02*
X142551927Y-77905488D01*
X142980499Y-80000726D02*
X141551927Y-80000726D01*
X141551927Y-80000726D02*
X141551927Y-76000726D01*
X141551927Y-76000726D02*
X142980499Y-76000726D01*
X144123356Y-79810250D02*
X144551928Y-80000726D01*
X144551928Y-80000726D02*
X145266213Y-80000726D01*
X145266213Y-80000726D02*
X145551928Y-79810250D01*
X145551928Y-79810250D02*
X145694785Y-79619773D01*
X145694785Y-79619773D02*
X145837642Y-79238821D01*
X145837642Y-79238821D02*
X145837642Y-78857869D01*
X145837642Y-78857869D02*
X145694785Y-78476916D01*
X145694785Y-78476916D02*
X145551928Y-78286440D01*
X145551928Y-78286440D02*
X145266213Y-78095964D01*
X145266213Y-78095964D02*
X144694785Y-77905488D01*
X144694785Y-77905488D02*
X144409070Y-77715011D01*
X144409070Y-77715011D02*
X144266213Y-77524535D01*
X144266213Y-77524535D02*
X144123356Y-77143583D01*
X144123356Y-77143583D02*
X144123356Y-76762630D01*
X144123356Y-76762630D02*
X144266213Y-76381678D01*
X144266213Y-76381678D02*
X144409070Y-76191202D01*
X144409070Y-76191202D02*
X144694785Y-76000726D01*
X144694785Y-76000726D02*
X145409070Y-76000726D01*
X145409070Y-76000726D02*
X145837642Y-76191202D01*
X147123356Y-80000726D02*
X147123356Y-76000726D01*
X147123356Y-76000726D02*
X148266213Y-76000726D01*
X148266213Y-76000726D02*
X148551928Y-76191202D01*
X148551928Y-76191202D02*
X148694785Y-76381678D01*
X148694785Y-76381678D02*
X148837642Y-76762630D01*
X148837642Y-76762630D02*
X148837642Y-77334059D01*
X148837642Y-77334059D02*
X148694785Y-77715011D01*
X148694785Y-77715011D02*
X148551928Y-77905488D01*
X148551928Y-77905488D02*
X148266213Y-78095964D01*
X148266213Y-78095964D02*
X147123356Y-78095964D01*
X149980499Y-78857869D02*
X151409071Y-78857869D01*
X149694785Y-80000726D02*
X150694785Y-76000726D01*
X150694785Y-76000726D02*
X151694785Y-80000726D01*
X154409071Y-79619773D02*
X154266214Y-79810250D01*
X154266214Y-79810250D02*
X153837642Y-80000726D01*
X153837642Y-80000726D02*
X153551928Y-80000726D01*
X153551928Y-80000726D02*
X153123357Y-79810250D01*
X153123357Y-79810250D02*
X152837642Y-79429297D01*
X152837642Y-79429297D02*
X152694785Y-79048345D01*
X152694785Y-79048345D02*
X152551928Y-78286440D01*
X152551928Y-78286440D02*
X152551928Y-77715011D01*
X152551928Y-77715011D02*
X152694785Y-76953107D01*
X152694785Y-76953107D02*
X152837642Y-76572154D01*
X152837642Y-76572154D02*
X153123357Y-76191202D01*
X153123357Y-76191202D02*
X153551928Y-76000726D01*
X153551928Y-76000726D02*
X153837642Y-76000726D01*
X153837642Y-76000726D02*
X154266214Y-76191202D01*
X154266214Y-76191202D02*
X154409071Y-76381678D01*
X155694785Y-77905488D02*
X156694785Y-77905488D01*
X157123357Y-80000726D02*
X155694785Y-80000726D01*
X155694785Y-80000726D02*
X155694785Y-76000726D01*
X155694785Y-76000726D02*
X157123357Y-76000726D01*
D12*
X169666666Y-88074819D02*
X169666666Y-88789104D01*
X169666666Y-88789104D02*
X169619047Y-88931961D01*
X169619047Y-88931961D02*
X169523809Y-89027200D01*
X169523809Y-89027200D02*
X169380952Y-89074819D01*
X169380952Y-89074819D02*
X169285714Y-89074819D01*
X170285714Y-88503390D02*
X170190476Y-88455771D01*
X170190476Y-88455771D02*
X170142857Y-88408152D01*
X170142857Y-88408152D02*
X170095238Y-88312914D01*
X170095238Y-88312914D02*
X170095238Y-88265295D01*
X170095238Y-88265295D02*
X170142857Y-88170057D01*
X170142857Y-88170057D02*
X170190476Y-88122438D01*
X170190476Y-88122438D02*
X170285714Y-88074819D01*
X170285714Y-88074819D02*
X170476190Y-88074819D01*
X170476190Y-88074819D02*
X170571428Y-88122438D01*
X170571428Y-88122438D02*
X170619047Y-88170057D01*
X170619047Y-88170057D02*
X170666666Y-88265295D01*
X170666666Y-88265295D02*
X170666666Y-88312914D01*
X170666666Y-88312914D02*
X170619047Y-88408152D01*
X170619047Y-88408152D02*
X170571428Y-88455771D01*
X170571428Y-88455771D02*
X170476190Y-88503390D01*
X170476190Y-88503390D02*
X170285714Y-88503390D01*
X170285714Y-88503390D02*
X170190476Y-88551009D01*
X170190476Y-88551009D02*
X170142857Y-88598628D01*
X170142857Y-88598628D02*
X170095238Y-88693866D01*
X170095238Y-88693866D02*
X170095238Y-88884342D01*
X170095238Y-88884342D02*
X170142857Y-88979580D01*
X170142857Y-88979580D02*
X170190476Y-89027200D01*
X170190476Y-89027200D02*
X170285714Y-89074819D01*
X170285714Y-89074819D02*
X170476190Y-89074819D01*
X170476190Y-89074819D02*
X170571428Y-89027200D01*
X170571428Y-89027200D02*
X170619047Y-88979580D01*
X170619047Y-88979580D02*
X170666666Y-88884342D01*
X170666666Y-88884342D02*
X170666666Y-88693866D01*
X170666666Y-88693866D02*
X170619047Y-88598628D01*
X170619047Y-88598628D02*
X170571428Y-88551009D01*
X170571428Y-88551009D02*
X170476190Y-88503390D01*
X144874819Y-89356666D02*
X144398628Y-89689999D01*
X144874819Y-89928094D02*
X143874819Y-89928094D01*
X143874819Y-89928094D02*
X143874819Y-89547142D01*
X143874819Y-89547142D02*
X143922438Y-89451904D01*
X143922438Y-89451904D02*
X143970057Y-89404285D01*
X143970057Y-89404285D02*
X144065295Y-89356666D01*
X144065295Y-89356666D02*
X144208152Y-89356666D01*
X144208152Y-89356666D02*
X144303390Y-89404285D01*
X144303390Y-89404285D02*
X144351009Y-89451904D01*
X144351009Y-89451904D02*
X144398628Y-89547142D01*
X144398628Y-89547142D02*
X144398628Y-89928094D01*
X143970057Y-88975713D02*
X143922438Y-88928094D01*
X143922438Y-88928094D02*
X143874819Y-88832856D01*
X143874819Y-88832856D02*
X143874819Y-88594761D01*
X143874819Y-88594761D02*
X143922438Y-88499523D01*
X143922438Y-88499523D02*
X143970057Y-88451904D01*
X143970057Y-88451904D02*
X144065295Y-88404285D01*
X144065295Y-88404285D02*
X144160533Y-88404285D01*
X144160533Y-88404285D02*
X144303390Y-88451904D01*
X144303390Y-88451904D02*
X144874819Y-89023332D01*
X144874819Y-89023332D02*
X144874819Y-88404285D01*
X156874819Y-89356666D02*
X156398628Y-89689999D01*
X156874819Y-89928094D02*
X155874819Y-89928094D01*
X155874819Y-89928094D02*
X155874819Y-89547142D01*
X155874819Y-89547142D02*
X155922438Y-89451904D01*
X155922438Y-89451904D02*
X155970057Y-89404285D01*
X155970057Y-89404285D02*
X156065295Y-89356666D01*
X156065295Y-89356666D02*
X156208152Y-89356666D01*
X156208152Y-89356666D02*
X156303390Y-89404285D01*
X156303390Y-89404285D02*
X156351009Y-89451904D01*
X156351009Y-89451904D02*
X156398628Y-89547142D01*
X156398628Y-89547142D02*
X156398628Y-89928094D01*
X155874819Y-89023332D02*
X155874819Y-88404285D01*
X155874819Y-88404285D02*
X156255771Y-88737618D01*
X156255771Y-88737618D02*
X156255771Y-88594761D01*
X156255771Y-88594761D02*
X156303390Y-88499523D01*
X156303390Y-88499523D02*
X156351009Y-88451904D01*
X156351009Y-88451904D02*
X156446247Y-88404285D01*
X156446247Y-88404285D02*
X156684342Y-88404285D01*
X156684342Y-88404285D02*
X156779580Y-88451904D01*
X156779580Y-88451904D02*
X156827200Y-88499523D01*
X156827200Y-88499523D02*
X156874819Y-88594761D01*
X156874819Y-88594761D02*
X156874819Y-88880475D01*
X156874819Y-88880475D02*
X156827200Y-88975713D01*
X156827200Y-88975713D02*
X156779580Y-89023332D01*
X175494819Y-88126666D02*
X175018628Y-88459999D01*
X175494819Y-88698094D02*
X174494819Y-88698094D01*
X174494819Y-88698094D02*
X174494819Y-88317142D01*
X174494819Y-88317142D02*
X174542438Y-88221904D01*
X174542438Y-88221904D02*
X174590057Y-88174285D01*
X174590057Y-88174285D02*
X174685295Y-88126666D01*
X174685295Y-88126666D02*
X174828152Y-88126666D01*
X174828152Y-88126666D02*
X174923390Y-88174285D01*
X174923390Y-88174285D02*
X174971009Y-88221904D01*
X174971009Y-88221904D02*
X175018628Y-88317142D01*
X175018628Y-88317142D02*
X175018628Y-88698094D01*
X174828152Y-87269523D02*
X175494819Y-87269523D01*
X174447200Y-87507618D02*
X175161485Y-87745713D01*
X175161485Y-87745713D02*
X175161485Y-87126666D01*
X168261905Y-99954819D02*
X168261905Y-98954819D01*
X168261905Y-98954819D02*
X168500000Y-98954819D01*
X168500000Y-98954819D02*
X168642857Y-99002438D01*
X168642857Y-99002438D02*
X168738095Y-99097676D01*
X168738095Y-99097676D02*
X168785714Y-99192914D01*
X168785714Y-99192914D02*
X168833333Y-99383390D01*
X168833333Y-99383390D02*
X168833333Y-99526247D01*
X168833333Y-99526247D02*
X168785714Y-99716723D01*
X168785714Y-99716723D02*
X168738095Y-99811961D01*
X168738095Y-99811961D02*
X168642857Y-99907200D01*
X168642857Y-99907200D02*
X168500000Y-99954819D01*
X168500000Y-99954819D02*
X168261905Y-99954819D01*
X169166667Y-98954819D02*
X169785714Y-98954819D01*
X169785714Y-98954819D02*
X169452381Y-99335771D01*
X169452381Y-99335771D02*
X169595238Y-99335771D01*
X169595238Y-99335771D02*
X169690476Y-99383390D01*
X169690476Y-99383390D02*
X169738095Y-99431009D01*
X169738095Y-99431009D02*
X169785714Y-99526247D01*
X169785714Y-99526247D02*
X169785714Y-99764342D01*
X169785714Y-99764342D02*
X169738095Y-99859580D01*
X169738095Y-99859580D02*
X169690476Y-99907200D01*
X169690476Y-99907200D02*
X169595238Y-99954819D01*
X169595238Y-99954819D02*
X169309524Y-99954819D01*
X169309524Y-99954819D02*
X169214286Y-99907200D01*
X169214286Y-99907200D02*
X169166667Y-99859580D01*
X154666666Y-97074819D02*
X154666666Y-97789104D01*
X154666666Y-97789104D02*
X154619047Y-97931961D01*
X154619047Y-97931961D02*
X154523809Y-98027200D01*
X154523809Y-98027200D02*
X154380952Y-98074819D01*
X154380952Y-98074819D02*
X154285714Y-98074819D01*
X155571428Y-97074819D02*
X155380952Y-97074819D01*
X155380952Y-97074819D02*
X155285714Y-97122438D01*
X155285714Y-97122438D02*
X155238095Y-97170057D01*
X155238095Y-97170057D02*
X155142857Y-97312914D01*
X155142857Y-97312914D02*
X155095238Y-97503390D01*
X155095238Y-97503390D02*
X155095238Y-97884342D01*
X155095238Y-97884342D02*
X155142857Y-97979580D01*
X155142857Y-97979580D02*
X155190476Y-98027200D01*
X155190476Y-98027200D02*
X155285714Y-98074819D01*
X155285714Y-98074819D02*
X155476190Y-98074819D01*
X155476190Y-98074819D02*
X155571428Y-98027200D01*
X155571428Y-98027200D02*
X155619047Y-97979580D01*
X155619047Y-97979580D02*
X155666666Y-97884342D01*
X155666666Y-97884342D02*
X155666666Y-97646247D01*
X155666666Y-97646247D02*
X155619047Y-97551009D01*
X155619047Y-97551009D02*
X155571428Y-97503390D01*
X155571428Y-97503390D02*
X155476190Y-97455771D01*
X155476190Y-97455771D02*
X155285714Y-97455771D01*
X155285714Y-97455771D02*
X155190476Y-97503390D01*
X155190476Y-97503390D02*
X155142857Y-97551009D01*
X155142857Y-97551009D02*
X155095238Y-97646247D01*
X180690476Y-101954819D02*
X180690476Y-102669104D01*
X180690476Y-102669104D02*
X180642857Y-102811961D01*
X180642857Y-102811961D02*
X180547619Y-102907200D01*
X180547619Y-102907200D02*
X180404762Y-102954819D01*
X180404762Y-102954819D02*
X180309524Y-102954819D01*
X181690476Y-102954819D02*
X181119048Y-102954819D01*
X181404762Y-102954819D02*
X181404762Y-101954819D01*
X181404762Y-101954819D02*
X181309524Y-102097676D01*
X181309524Y-102097676D02*
X181214286Y-102192914D01*
X181214286Y-102192914D02*
X181119048Y-102240533D01*
X182309524Y-101954819D02*
X182404762Y-101954819D01*
X182404762Y-101954819D02*
X182500000Y-102002438D01*
X182500000Y-102002438D02*
X182547619Y-102050057D01*
X182547619Y-102050057D02*
X182595238Y-102145295D01*
X182595238Y-102145295D02*
X182642857Y-102335771D01*
X182642857Y-102335771D02*
X182642857Y-102573866D01*
X182642857Y-102573866D02*
X182595238Y-102764342D01*
X182595238Y-102764342D02*
X182547619Y-102859580D01*
X182547619Y-102859580D02*
X182500000Y-102907200D01*
X182500000Y-102907200D02*
X182404762Y-102954819D01*
X182404762Y-102954819D02*
X182309524Y-102954819D01*
X182309524Y-102954819D02*
X182214286Y-102907200D01*
X182214286Y-102907200D02*
X182166667Y-102859580D01*
X182166667Y-102859580D02*
X182119048Y-102764342D01*
X182119048Y-102764342D02*
X182071429Y-102573866D01*
X182071429Y-102573866D02*
X182071429Y-102335771D01*
X182071429Y-102335771D02*
X182119048Y-102145295D01*
X182119048Y-102145295D02*
X182166667Y-102050057D01*
X182166667Y-102050057D02*
X182214286Y-102002438D01*
X182214286Y-102002438D02*
X182309524Y-101954819D01*
X165666666Y-76574819D02*
X165666666Y-77289104D01*
X165666666Y-77289104D02*
X165619047Y-77431961D01*
X165619047Y-77431961D02*
X165523809Y-77527200D01*
X165523809Y-77527200D02*
X165380952Y-77574819D01*
X165380952Y-77574819D02*
X165285714Y-77574819D01*
X166095238Y-76670057D02*
X166142857Y-76622438D01*
X166142857Y-76622438D02*
X166238095Y-76574819D01*
X166238095Y-76574819D02*
X166476190Y-76574819D01*
X166476190Y-76574819D02*
X166571428Y-76622438D01*
X166571428Y-76622438D02*
X166619047Y-76670057D01*
X166619047Y-76670057D02*
X166666666Y-76765295D01*
X166666666Y-76765295D02*
X166666666Y-76860533D01*
X166666666Y-76860533D02*
X166619047Y-77003390D01*
X166619047Y-77003390D02*
X166047619Y-77574819D01*
X166047619Y-77574819D02*
X166666666Y-77574819D01*
X163333333Y-100859580D02*
X163285714Y-100907200D01*
X163285714Y-100907200D02*
X163142857Y-100954819D01*
X163142857Y-100954819D02*
X163047619Y-100954819D01*
X163047619Y-100954819D02*
X162904762Y-100907200D01*
X162904762Y-100907200D02*
X162809524Y-100811961D01*
X162809524Y-100811961D02*
X162761905Y-100716723D01*
X162761905Y-100716723D02*
X162714286Y-100526247D01*
X162714286Y-100526247D02*
X162714286Y-100383390D01*
X162714286Y-100383390D02*
X162761905Y-100192914D01*
X162761905Y-100192914D02*
X162809524Y-100097676D01*
X162809524Y-100097676D02*
X162904762Y-100002438D01*
X162904762Y-100002438D02*
X163047619Y-99954819D01*
X163047619Y-99954819D02*
X163142857Y-99954819D01*
X163142857Y-99954819D02*
X163285714Y-100002438D01*
X163285714Y-100002438D02*
X163333333Y-100050057D01*
X164285714Y-100954819D02*
X163714286Y-100954819D01*
X164000000Y-100954819D02*
X164000000Y-99954819D01*
X164000000Y-99954819D02*
X163904762Y-100097676D01*
X163904762Y-100097676D02*
X163809524Y-100192914D01*
X163809524Y-100192914D02*
X163714286Y-100240533D01*
X178949375Y-95117725D02*
X178616042Y-94641534D01*
X178377947Y-95117725D02*
X178377947Y-94117725D01*
X178377947Y-94117725D02*
X178758899Y-94117725D01*
X178758899Y-94117725D02*
X178854137Y-94165344D01*
X178854137Y-94165344D02*
X178901756Y-94212963D01*
X178901756Y-94212963D02*
X178949375Y-94308201D01*
X178949375Y-94308201D02*
X178949375Y-94451058D01*
X178949375Y-94451058D02*
X178901756Y-94546296D01*
X178901756Y-94546296D02*
X178854137Y-94593915D01*
X178854137Y-94593915D02*
X178758899Y-94641534D01*
X178758899Y-94641534D02*
X178377947Y-94641534D01*
X179854137Y-94117725D02*
X179377947Y-94117725D01*
X179377947Y-94117725D02*
X179330328Y-94593915D01*
X179330328Y-94593915D02*
X179377947Y-94546296D01*
X179377947Y-94546296D02*
X179473185Y-94498677D01*
X179473185Y-94498677D02*
X179711280Y-94498677D01*
X179711280Y-94498677D02*
X179806518Y-94546296D01*
X179806518Y-94546296D02*
X179854137Y-94593915D01*
X179854137Y-94593915D02*
X179901756Y-94689153D01*
X179901756Y-94689153D02*
X179901756Y-94927248D01*
X179901756Y-94927248D02*
X179854137Y-95022486D01*
X179854137Y-95022486D02*
X179806518Y-95070106D01*
X179806518Y-95070106D02*
X179711280Y-95117725D01*
X179711280Y-95117725D02*
X179473185Y-95117725D01*
X179473185Y-95117725D02*
X179377947Y-95070106D01*
X179377947Y-95070106D02*
X179330328Y-95022486D01*
X177166666Y-77574819D02*
X177166666Y-78289104D01*
X177166666Y-78289104D02*
X177119047Y-78431961D01*
X177119047Y-78431961D02*
X177023809Y-78527200D01*
X177023809Y-78527200D02*
X176880952Y-78574819D01*
X176880952Y-78574819D02*
X176785714Y-78574819D01*
X178119047Y-77574819D02*
X177642857Y-77574819D01*
X177642857Y-77574819D02*
X177595238Y-78051009D01*
X177595238Y-78051009D02*
X177642857Y-78003390D01*
X177642857Y-78003390D02*
X177738095Y-77955771D01*
X177738095Y-77955771D02*
X177976190Y-77955771D01*
X177976190Y-77955771D02*
X178071428Y-78003390D01*
X178071428Y-78003390D02*
X178119047Y-78051009D01*
X178119047Y-78051009D02*
X178166666Y-78146247D01*
X178166666Y-78146247D02*
X178166666Y-78384342D01*
X178166666Y-78384342D02*
X178119047Y-78479580D01*
X178119047Y-78479580D02*
X178071428Y-78527200D01*
X178071428Y-78527200D02*
X177976190Y-78574819D01*
X177976190Y-78574819D02*
X177738095Y-78574819D01*
X177738095Y-78574819D02*
X177642857Y-78527200D01*
X177642857Y-78527200D02*
X177595238Y-78479580D01*
X130534819Y-89666666D02*
X130058628Y-89999999D01*
X130534819Y-90238094D02*
X129534819Y-90238094D01*
X129534819Y-90238094D02*
X129534819Y-89857142D01*
X129534819Y-89857142D02*
X129582438Y-89761904D01*
X129582438Y-89761904D02*
X129630057Y-89714285D01*
X129630057Y-89714285D02*
X129725295Y-89666666D01*
X129725295Y-89666666D02*
X129868152Y-89666666D01*
X129868152Y-89666666D02*
X129963390Y-89714285D01*
X129963390Y-89714285D02*
X130011009Y-89761904D01*
X130011009Y-89761904D02*
X130058628Y-89857142D01*
X130058628Y-89857142D02*
X130058628Y-90238094D01*
X130534819Y-88714285D02*
X130534819Y-89285713D01*
X130534819Y-88999999D02*
X129534819Y-88999999D01*
X129534819Y-88999999D02*
X129677676Y-89095237D01*
X129677676Y-89095237D02*
X129772914Y-89190475D01*
X129772914Y-89190475D02*
X129820533Y-89285713D01*
X115526666Y-97854819D02*
X115526666Y-98569104D01*
X115526666Y-98569104D02*
X115479047Y-98711961D01*
X115479047Y-98711961D02*
X115383809Y-98807200D01*
X115383809Y-98807200D02*
X115240952Y-98854819D01*
X115240952Y-98854819D02*
X115145714Y-98854819D01*
X116526666Y-98854819D02*
X115955238Y-98854819D01*
X116240952Y-98854819D02*
X116240952Y-97854819D01*
X116240952Y-97854819D02*
X116145714Y-97997676D01*
X116145714Y-97997676D02*
X116050476Y-98092914D01*
X116050476Y-98092914D02*
X115955238Y-98140533D01*
X163738095Y-83004819D02*
X163738095Y-83814342D01*
X163738095Y-83814342D02*
X163785714Y-83909580D01*
X163785714Y-83909580D02*
X163833333Y-83957200D01*
X163833333Y-83957200D02*
X163928571Y-84004819D01*
X163928571Y-84004819D02*
X164119047Y-84004819D01*
X164119047Y-84004819D02*
X164214285Y-83957200D01*
X164214285Y-83957200D02*
X164261904Y-83909580D01*
X164261904Y-83909580D02*
X164309523Y-83814342D01*
X164309523Y-83814342D02*
X164309523Y-83004819D01*
X165309523Y-84004819D02*
X164738095Y-84004819D01*
X165023809Y-84004819D02*
X165023809Y-83004819D01*
X165023809Y-83004819D02*
X164928571Y-83147676D01*
X164928571Y-83147676D02*
X164833333Y-83242914D01*
X164833333Y-83242914D02*
X164738095Y-83290533D01*
X176166667Y-93287200D02*
X176309524Y-93334819D01*
X176309524Y-93334819D02*
X176547619Y-93334819D01*
X176547619Y-93334819D02*
X176642857Y-93287200D01*
X176642857Y-93287200D02*
X176690476Y-93239580D01*
X176690476Y-93239580D02*
X176738095Y-93144342D01*
X176738095Y-93144342D02*
X176738095Y-93049104D01*
X176738095Y-93049104D02*
X176690476Y-92953866D01*
X176690476Y-92953866D02*
X176642857Y-92906247D01*
X176642857Y-92906247D02*
X176547619Y-92858628D01*
X176547619Y-92858628D02*
X176357143Y-92811009D01*
X176357143Y-92811009D02*
X176261905Y-92763390D01*
X176261905Y-92763390D02*
X176214286Y-92715771D01*
X176214286Y-92715771D02*
X176166667Y-92620533D01*
X176166667Y-92620533D02*
X176166667Y-92525295D01*
X176166667Y-92525295D02*
X176214286Y-92430057D01*
X176214286Y-92430057D02*
X176261905Y-92382438D01*
X176261905Y-92382438D02*
X176357143Y-92334819D01*
X176357143Y-92334819D02*
X176595238Y-92334819D01*
X176595238Y-92334819D02*
X176738095Y-92382438D01*
X177071429Y-92334819D02*
X177309524Y-93334819D01*
X177309524Y-93334819D02*
X177500000Y-92620533D01*
X177500000Y-92620533D02*
X177690476Y-93334819D01*
X177690476Y-93334819D02*
X177928572Y-92334819D01*
X178833333Y-93334819D02*
X178261905Y-93334819D01*
X178547619Y-93334819D02*
X178547619Y-92334819D01*
X178547619Y-92334819D02*
X178452381Y-92477676D01*
X178452381Y-92477676D02*
X178357143Y-92572914D01*
X178357143Y-92572914D02*
X178261905Y-92620533D01*
X150074819Y-89928094D02*
X149074819Y-89928094D01*
X149074819Y-89928094D02*
X149074819Y-89689999D01*
X149074819Y-89689999D02*
X149122438Y-89547142D01*
X149122438Y-89547142D02*
X149217676Y-89451904D01*
X149217676Y-89451904D02*
X149312914Y-89404285D01*
X149312914Y-89404285D02*
X149503390Y-89356666D01*
X149503390Y-89356666D02*
X149646247Y-89356666D01*
X149646247Y-89356666D02*
X149836723Y-89404285D01*
X149836723Y-89404285D02*
X149931961Y-89451904D01*
X149931961Y-89451904D02*
X150027200Y-89547142D01*
X150027200Y-89547142D02*
X150074819Y-89689999D01*
X150074819Y-89689999D02*
X150074819Y-89928094D01*
X149170057Y-88975713D02*
X149122438Y-88928094D01*
X149122438Y-88928094D02*
X149074819Y-88832856D01*
X149074819Y-88832856D02*
X149074819Y-88594761D01*
X149074819Y-88594761D02*
X149122438Y-88499523D01*
X149122438Y-88499523D02*
X149170057Y-88451904D01*
X149170057Y-88451904D02*
X149265295Y-88404285D01*
X149265295Y-88404285D02*
X149360533Y-88404285D01*
X149360533Y-88404285D02*
X149503390Y-88451904D01*
X149503390Y-88451904D02*
X150074819Y-89023332D01*
X150074819Y-89023332D02*
X150074819Y-88404285D01*
X149754819Y-85641904D02*
X148754819Y-85641904D01*
X149754819Y-85070476D02*
X149183390Y-85499047D01*
X148754819Y-85070476D02*
X149326247Y-85641904D01*
X145166666Y-95454819D02*
X145166666Y-96169104D01*
X145166666Y-96169104D02*
X145119047Y-96311961D01*
X145119047Y-96311961D02*
X145023809Y-96407200D01*
X145023809Y-96407200D02*
X144880952Y-96454819D01*
X144880952Y-96454819D02*
X144785714Y-96454819D01*
X146071428Y-95788152D02*
X146071428Y-96454819D01*
X145833333Y-95407200D02*
X145595238Y-96121485D01*
X145595238Y-96121485D02*
X146214285Y-96121485D01*
X161666666Y-81454819D02*
X161666666Y-82169104D01*
X161666666Y-82169104D02*
X161619047Y-82311961D01*
X161619047Y-82311961D02*
X161523809Y-82407200D01*
X161523809Y-82407200D02*
X161380952Y-82454819D01*
X161380952Y-82454819D02*
X161285714Y-82454819D01*
X162190476Y-82454819D02*
X162380952Y-82454819D01*
X162380952Y-82454819D02*
X162476190Y-82407200D01*
X162476190Y-82407200D02*
X162523809Y-82359580D01*
X162523809Y-82359580D02*
X162619047Y-82216723D01*
X162619047Y-82216723D02*
X162666666Y-82026247D01*
X162666666Y-82026247D02*
X162666666Y-81645295D01*
X162666666Y-81645295D02*
X162619047Y-81550057D01*
X162619047Y-81550057D02*
X162571428Y-81502438D01*
X162571428Y-81502438D02*
X162476190Y-81454819D01*
X162476190Y-81454819D02*
X162285714Y-81454819D01*
X162285714Y-81454819D02*
X162190476Y-81502438D01*
X162190476Y-81502438D02*
X162142857Y-81550057D01*
X162142857Y-81550057D02*
X162095238Y-81645295D01*
X162095238Y-81645295D02*
X162095238Y-81883390D01*
X162095238Y-81883390D02*
X162142857Y-81978628D01*
X162142857Y-81978628D02*
X162190476Y-82026247D01*
X162190476Y-82026247D02*
X162285714Y-82073866D01*
X162285714Y-82073866D02*
X162476190Y-82073866D01*
X162476190Y-82073866D02*
X162571428Y-82026247D01*
X162571428Y-82026247D02*
X162619047Y-81978628D01*
X162619047Y-81978628D02*
X162666666Y-81883390D01*
X140074819Y-90428094D02*
X139074819Y-90428094D01*
X139074819Y-90428094D02*
X139074819Y-90189999D01*
X139074819Y-90189999D02*
X139122438Y-90047142D01*
X139122438Y-90047142D02*
X139217676Y-89951904D01*
X139217676Y-89951904D02*
X139312914Y-89904285D01*
X139312914Y-89904285D02*
X139503390Y-89856666D01*
X139503390Y-89856666D02*
X139646247Y-89856666D01*
X139646247Y-89856666D02*
X139836723Y-89904285D01*
X139836723Y-89904285D02*
X139931961Y-89951904D01*
X139931961Y-89951904D02*
X140027200Y-90047142D01*
X140027200Y-90047142D02*
X140074819Y-90189999D01*
X140074819Y-90189999D02*
X140074819Y-90428094D01*
X140074819Y-88904285D02*
X140074819Y-89475713D01*
X140074819Y-89189999D02*
X139074819Y-89189999D01*
X139074819Y-89189999D02*
X139217676Y-89285237D01*
X139217676Y-89285237D02*
X139312914Y-89380475D01*
X139312914Y-89380475D02*
X139360533Y-89475713D01*
X139754819Y-86141904D02*
X138754819Y-86141904D01*
X139754819Y-85570476D02*
X139183390Y-85999047D01*
X138754819Y-85570476D02*
X139326247Y-86141904D01*
X151166666Y-90074819D02*
X151166666Y-90789104D01*
X151166666Y-90789104D02*
X151119047Y-90931961D01*
X151119047Y-90931961D02*
X151023809Y-91027200D01*
X151023809Y-91027200D02*
X150880952Y-91074819D01*
X150880952Y-91074819D02*
X150785714Y-91074819D01*
X151547619Y-90074819D02*
X152166666Y-90074819D01*
X152166666Y-90074819D02*
X151833333Y-90455771D01*
X151833333Y-90455771D02*
X151976190Y-90455771D01*
X151976190Y-90455771D02*
X152071428Y-90503390D01*
X152071428Y-90503390D02*
X152119047Y-90551009D01*
X152119047Y-90551009D02*
X152166666Y-90646247D01*
X152166666Y-90646247D02*
X152166666Y-90884342D01*
X152166666Y-90884342D02*
X152119047Y-90979580D01*
X152119047Y-90979580D02*
X152071428Y-91027200D01*
X152071428Y-91027200D02*
X151976190Y-91074819D01*
X151976190Y-91074819D02*
X151690476Y-91074819D01*
X151690476Y-91074819D02*
X151595238Y-91027200D01*
X151595238Y-91027200D02*
X151547619Y-90979580D01*
D13*
%TO.C,J8*%
X168620000Y-89620000D02*
X170000000Y-89620000D01*
X168620000Y-91000000D02*
X168620000Y-89620000D01*
X168620000Y-92270000D02*
X168620000Y-92380000D01*
X168620000Y-92270000D02*
X171380000Y-92270000D01*
X168620000Y-92380000D02*
X171380000Y-92380000D01*
X171380000Y-92270000D02*
X171380000Y-92380000D01*
%TO.C,R2*%
X142500000Y-86320000D02*
X142500000Y-87270000D01*
X142500000Y-92060000D02*
X142500000Y-91110000D01*
X143420000Y-87270000D02*
X141580000Y-87270000D01*
X141580000Y-91110000D01*
X143420000Y-91110000D01*
X143420000Y-87270000D01*
%TO.C,R3*%
X154500000Y-86320000D02*
X154500000Y-87270000D01*
X154500000Y-92060000D02*
X154500000Y-91110000D01*
X155420000Y-87270000D02*
X153580000Y-87270000D01*
X153580000Y-91110000D01*
X155420000Y-91110000D01*
X155420000Y-87270000D01*
%TO.C,R4*%
X173000000Y-85440000D02*
X173000000Y-86390000D01*
X173000000Y-91180000D02*
X173000000Y-90230000D01*
X173920000Y-86390000D02*
X172080000Y-86390000D01*
X172080000Y-90230000D01*
X173920000Y-90230000D01*
X173920000Y-86390000D01*
%TO.C,D3*%
X173290000Y-95920000D02*
X173290000Y-95764000D01*
X173290000Y-98236000D02*
X173290000Y-98080000D01*
X170058563Y-95920000D02*
G75*
G02*
X173290000Y-95764484I1671437J-1080000D01*
G01*
X170689039Y-95920000D02*
G75*
G02*
X172770961Y-95920000I1040961J-1080000D01*
G01*
X172770961Y-98080000D02*
G75*
G02*
X170689039Y-98080000I-1040961J1080000D01*
G01*
X173290000Y-98235516D02*
G75*
G02*
X170058563Y-98080000I-1560000J1235516D01*
G01*
%TO.C,J6*%
X153620000Y-98620000D02*
X155000000Y-98620000D01*
X153620000Y-100000000D02*
X153620000Y-98620000D01*
X153620000Y-101270000D02*
X153620000Y-101380000D01*
X153620000Y-101270000D02*
X156380000Y-101270000D01*
X153620000Y-101380000D02*
X156380000Y-101380000D01*
X156380000Y-101270000D02*
X156380000Y-101380000D01*
%TO.C,J10*%
X177120000Y-101120000D02*
X178500000Y-101120000D01*
X177120000Y-102500000D02*
X177120000Y-101120000D01*
X177120000Y-103770000D02*
X177120000Y-103880000D01*
X177120000Y-103770000D02*
X179880000Y-103770000D01*
X177120000Y-103880000D02*
X179880000Y-103880000D01*
X179880000Y-103770000D02*
X179880000Y-103880000D01*
%TO.C,J2*%
X164620000Y-78120000D02*
X166000000Y-78120000D01*
X164620000Y-79500000D02*
X164620000Y-78120000D01*
X164620000Y-80770000D02*
X164620000Y-80880000D01*
X164620000Y-80770000D02*
X167380000Y-80770000D01*
X164620000Y-80880000D02*
X167380000Y-80880000D01*
X167380000Y-80770000D02*
X167380000Y-80880000D01*
%TO.C,C1*%
X160880000Y-96630000D02*
X166120000Y-96630000D01*
X160880000Y-96967000D02*
X160880000Y-96630000D01*
X160880000Y-99370000D02*
X160880000Y-99033000D01*
X166120000Y-96630000D02*
X166120000Y-96967000D01*
X166120000Y-99033000D02*
X166120000Y-99370000D01*
X166120000Y-99370000D02*
X160880000Y-99370000D01*
%TO.C,R5*%
X176820000Y-97000000D02*
X177770000Y-97000000D01*
X182560000Y-97000000D02*
X181610000Y-97000000D01*
X177770000Y-96080000D02*
X181610000Y-96080000D01*
X181610000Y-97920000D01*
X177770000Y-97920000D01*
X177770000Y-96080000D01*
%TO.C,J5*%
X176120000Y-79120000D02*
X177500000Y-79120000D01*
X176120000Y-80500000D02*
X176120000Y-79120000D01*
X176120000Y-81770000D02*
X176120000Y-81880000D01*
X176120000Y-81770000D02*
X178880000Y-81770000D01*
X176120000Y-81880000D02*
X178880000Y-81880000D01*
X178880000Y-81770000D02*
X178880000Y-81880000D01*
%TO.C,R1*%
X132000000Y-86630000D02*
X132000000Y-87580000D01*
X132000000Y-92370000D02*
X132000000Y-91420000D01*
X131080000Y-91420000D02*
X132920000Y-91420000D01*
X132920000Y-87580000D01*
X131080000Y-87580000D01*
X131080000Y-91420000D01*
%TO.C,J1*%
X108090000Y-83390000D02*
X108090000Y-95610000D01*
X108090000Y-83390000D02*
X116060000Y-83390000D01*
X108090000Y-95610000D02*
X116060000Y-95610000D01*
X124710000Y-83390000D02*
X120960000Y-83390000D01*
X124710000Y-83390000D02*
X124710000Y-95610000D01*
X124710000Y-95610000D02*
X120960000Y-95610000D01*
X124910000Y-90750000D02*
X125410000Y-91250000D01*
X125410000Y-90250000D02*
X124910000Y-90750000D01*
X125410000Y-91250000D02*
X125410000Y-90250000D01*
%TO.C,U1*%
X160540000Y-84550000D02*
X160540000Y-94830000D01*
X160540000Y-94830000D02*
X165840000Y-94830000D01*
X162190000Y-84550000D02*
X160540000Y-84550000D01*
X165840000Y-84550000D02*
X164190000Y-84550000D01*
X165840000Y-94830000D02*
X165840000Y-84550000D01*
X164190000Y-84550000D02*
G75*
G02*
X162190000Y-84550000I-1000000J0D01*
G01*
%TO.C,SW1*%
X176120000Y-89230000D02*
X176120000Y-86580000D01*
X178880000Y-86580000D02*
X176120000Y-86580000D01*
X178880000Y-89230000D02*
X176120000Y-89230000D01*
X178880000Y-89230000D02*
X178880000Y-86580000D01*
X178880000Y-90500000D02*
X178880000Y-91880000D01*
X178880000Y-91880000D02*
X177500000Y-91880000D01*
%TO.C,D2*%
X147500000Y-86420000D02*
X147500000Y-87070000D01*
X147500000Y-91960000D02*
X147500000Y-91310000D01*
X148620000Y-87670000D02*
X146380000Y-87670000D01*
X148620000Y-87790000D02*
X146380000Y-87790000D01*
X148620000Y-87910000D02*
X146380000Y-87910000D01*
X148620000Y-87070000D02*
X146380000Y-87070000D01*
X146380000Y-91310000D01*
X148620000Y-91310000D01*
X148620000Y-87070000D01*
%TO.C,J4*%
X141120000Y-94620000D02*
X142500000Y-94620000D01*
X141120000Y-96000000D02*
X141120000Y-94620000D01*
X141120000Y-97270000D02*
X141120000Y-97380000D01*
X141120000Y-97270000D02*
X143880000Y-97270000D01*
X141120000Y-97380000D02*
X143880000Y-97380000D01*
X143880000Y-97270000D02*
X143880000Y-97380000D01*
D14*
%TO.C,G\u002A\u002A\u002A*%
G36*
X185283582Y-84148911D02*
G01*
X185361984Y-84219319D01*
X185411090Y-84319140D01*
X185423190Y-84438910D01*
X185398924Y-84552932D01*
X185351932Y-84624501D01*
X185227389Y-84708838D01*
X185100642Y-84737059D01*
X184983190Y-84712465D01*
X184886528Y-84638360D01*
X184822155Y-84518043D01*
X184809979Y-84468881D01*
X184810977Y-84334956D01*
X184859860Y-84225714D01*
X184944095Y-84146823D01*
X185051150Y-84103947D01*
X185168490Y-84102755D01*
X185283582Y-84148911D01*
G37*
G36*
X186413583Y-84130812D02*
G01*
X186519801Y-84202679D01*
X186596082Y-84306833D01*
X186626635Y-84421415D01*
X186626683Y-84425819D01*
X186606884Y-84483236D01*
X186556430Y-84563136D01*
X186520079Y-84608780D01*
X186446444Y-84684884D01*
X186381873Y-84721466D01*
X186300659Y-84731950D01*
X186283881Y-84732102D01*
X186189819Y-84722583D01*
X186118409Y-84684337D01*
X186057942Y-84624187D01*
X185983629Y-84503549D01*
X185963997Y-84382102D01*
X185991417Y-84270430D01*
X186058262Y-84179115D01*
X186156902Y-84118740D01*
X186279709Y-84099888D01*
X186413583Y-84130812D01*
G37*
G36*
X185053779Y-92751488D02*
G01*
X185277735Y-92756571D01*
X185558454Y-92764581D01*
X185565710Y-92764792D01*
X186038670Y-92782772D01*
X186453202Y-92808179D01*
X186813906Y-92842139D01*
X187125382Y-92885780D01*
X187392229Y-92940228D01*
X187619047Y-93006612D01*
X187810436Y-93086058D01*
X187970996Y-93179694D01*
X188105327Y-93288645D01*
X188218028Y-93414041D01*
X188218664Y-93414866D01*
X188327951Y-93597858D01*
X188407563Y-93815074D01*
X188454238Y-94047985D01*
X188464713Y-94278059D01*
X188435728Y-94486765D01*
X188417705Y-94545675D01*
X188334534Y-94702522D01*
X188217007Y-94814653D01*
X188073819Y-94875205D01*
X187989107Y-94884040D01*
X187910755Y-94870792D01*
X187875576Y-94826725D01*
X187882054Y-94745354D01*
X187927813Y-94622127D01*
X187984334Y-94436340D01*
X188006284Y-94228264D01*
X187993648Y-94020995D01*
X187946411Y-93837630D01*
X187928338Y-93796469D01*
X187860909Y-93683296D01*
X187774447Y-93586515D01*
X187664235Y-93505018D01*
X187525554Y-93437695D01*
X187353688Y-93383440D01*
X187143919Y-93341143D01*
X186891529Y-93309697D01*
X186591801Y-93287994D01*
X186240017Y-93274925D01*
X185831460Y-93269382D01*
X185682964Y-93269015D01*
X184691738Y-93268828D01*
X184614073Y-93185027D01*
X184554809Y-93092510D01*
X184536442Y-92974950D01*
X184536408Y-92968239D01*
X184537015Y-92904295D01*
X184543106Y-92853413D01*
X184561092Y-92814326D01*
X184597382Y-92785769D01*
X184658386Y-92766473D01*
X184750514Y-92755172D01*
X184880175Y-92750600D01*
X185053779Y-92751488D01*
G37*
G36*
X186578871Y-88465397D02*
G01*
X186882074Y-88561812D01*
X186975062Y-88603256D01*
X187092111Y-88675431D01*
X187232390Y-88786948D01*
X187383039Y-88925098D01*
X187531195Y-89077170D01*
X187663995Y-89230456D01*
X187768579Y-89372244D01*
X187793136Y-89411666D01*
X187995620Y-89814123D01*
X188150442Y-90248354D01*
X188253844Y-90700478D01*
X188302070Y-91156613D01*
X188305236Y-91303651D01*
X188301316Y-91444518D01*
X188288242Y-91534096D01*
X188264047Y-91584027D01*
X188256633Y-91591185D01*
X188225939Y-91610504D01*
X188182911Y-91622234D01*
X188117560Y-91626393D01*
X188019898Y-91622999D01*
X187879935Y-91612071D01*
X187802670Y-91604658D01*
X187687681Y-91593625D01*
X187673859Y-91592239D01*
X187495687Y-91576905D01*
X187268216Y-91561234D01*
X187005482Y-91545867D01*
X186721520Y-91531447D01*
X186430364Y-91518614D01*
X186146051Y-91508011D01*
X185882615Y-91500279D01*
X185654091Y-91496061D01*
X185557571Y-91495470D01*
X185169383Y-91495262D01*
X185189863Y-91715621D01*
X185199427Y-91831480D01*
X185198641Y-91900512D01*
X185183625Y-91938903D01*
X185150498Y-91962837D01*
X185128040Y-91973481D01*
X185055816Y-91994039D01*
X184989735Y-91973258D01*
X184963750Y-91957261D01*
X184870180Y-91869493D01*
X184794067Y-91738331D01*
X184734678Y-91560421D01*
X184691279Y-91332409D01*
X184663136Y-91050941D01*
X184649515Y-90712662D01*
X184647971Y-90518819D01*
X185083300Y-90518819D01*
X185085418Y-90719313D01*
X185089051Y-90774332D01*
X185110908Y-91036725D01*
X185892548Y-91039686D01*
X186478949Y-91049493D01*
X187025393Y-91074036D01*
X187522929Y-91112852D01*
X187727244Y-91134707D01*
X187802670Y-91142904D01*
X187853713Y-91140762D01*
X187882643Y-91119232D01*
X187891729Y-91069264D01*
X187883242Y-90981811D01*
X187859453Y-90847823D01*
X187833166Y-90712532D01*
X187761540Y-90394757D01*
X187677369Y-90123870D01*
X187574222Y-89883710D01*
X187445671Y-89658120D01*
X187367776Y-89542795D01*
X187168916Y-89312216D01*
X186937712Y-89136063D01*
X186674391Y-89014482D01*
X186466333Y-88961050D01*
X186180089Y-88934872D01*
X185921474Y-88964290D01*
X185693261Y-89047695D01*
X185498224Y-89183474D01*
X185339136Y-89370017D01*
X185218771Y-89605711D01*
X185184359Y-89705861D01*
X185146483Y-89867932D01*
X185115742Y-90071720D01*
X185094044Y-90295819D01*
X185083300Y-90518819D01*
X184647971Y-90518819D01*
X184647928Y-90513467D01*
X184651086Y-90243166D01*
X184661504Y-90022359D01*
X184681628Y-89837382D01*
X184713903Y-89674569D01*
X184760775Y-89520257D01*
X184824690Y-89360781D01*
X184873180Y-89254940D01*
X185027028Y-88999249D01*
X185221572Y-88787856D01*
X185450359Y-88622762D01*
X185706935Y-88505968D01*
X185984848Y-88439476D01*
X186277644Y-88425285D01*
X186578871Y-88465397D01*
G37*
G36*
X185917219Y-84901444D02*
G01*
X185961596Y-84907921D01*
X186158303Y-84950071D01*
X186330164Y-85000731D01*
X186494165Y-85067129D01*
X186667294Y-85156492D01*
X186866537Y-85276048D01*
X186946691Y-85327076D01*
X187043965Y-85397020D01*
X187160974Y-85492394D01*
X187288531Y-85604339D01*
X187417448Y-85723999D01*
X187538540Y-85842516D01*
X187642620Y-85951033D01*
X187720500Y-86040694D01*
X187762993Y-86102639D01*
X187768120Y-86119025D01*
X187788180Y-86165632D01*
X187837228Y-86236587D01*
X187863132Y-86268380D01*
X187919555Y-86340134D01*
X187952953Y-86393703D01*
X187956857Y-86406341D01*
X187974515Y-86446777D01*
X188019089Y-86515929D01*
X188043952Y-86550056D01*
X188116063Y-86656598D01*
X188182559Y-86771819D01*
X188192820Y-86792145D01*
X188239889Y-86881725D01*
X188282681Y-86952111D01*
X188293131Y-86966335D01*
X188320773Y-87010438D01*
X188368276Y-87095976D01*
X188429199Y-87210346D01*
X188497098Y-87340946D01*
X188565532Y-87475174D01*
X188628058Y-87600427D01*
X188678233Y-87704103D01*
X188709615Y-87773601D01*
X188716957Y-87795400D01*
X188694212Y-87830584D01*
X188683486Y-87838395D01*
X188610721Y-87849883D01*
X188531054Y-87811004D01*
X188460147Y-87730575D01*
X188445228Y-87704239D01*
X188386688Y-87605388D01*
X188321821Y-87516652D01*
X188312164Y-87505546D01*
X188255711Y-87428028D01*
X188221636Y-87354302D01*
X188198336Y-87298903D01*
X188178977Y-87283043D01*
X188150506Y-87258630D01*
X188098924Y-87194512D01*
X188035204Y-87104371D01*
X188032903Y-87100936D01*
X187951780Y-86992199D01*
X187841041Y-86861146D01*
X187711054Y-86718316D01*
X187572185Y-86574245D01*
X187434801Y-86439469D01*
X187309268Y-86324526D01*
X187205952Y-86239952D01*
X187149251Y-86202774D01*
X187066260Y-86152692D01*
X187008082Y-86105755D01*
X186997241Y-86092087D01*
X186946894Y-86054024D01*
X186914024Y-86047881D01*
X186845496Y-86024943D01*
X186816708Y-86000374D01*
X186754231Y-85961236D01*
X186708316Y-85952868D01*
X186639126Y-85941311D01*
X186609264Y-85925725D01*
X186553697Y-85896728D01*
X186450763Y-85860894D01*
X186315498Y-85822238D01*
X186162940Y-85784773D01*
X186008125Y-85752515D01*
X185882418Y-85731685D01*
X185685873Y-85713109D01*
X185524180Y-85719202D01*
X185458457Y-85729586D01*
X185344156Y-85748747D01*
X185241644Y-85760766D01*
X185200765Y-85762843D01*
X185105042Y-85785462D01*
X184988977Y-85844490D01*
X184871557Y-85926684D01*
X184771772Y-86018804D01*
X184709696Y-86105309D01*
X184661258Y-86204721D01*
X184616055Y-86295700D01*
X184610776Y-86306134D01*
X184579010Y-86394457D01*
X184568825Y-86464488D01*
X184579505Y-86548186D01*
X184606444Y-86669896D01*
X184643716Y-86808299D01*
X184685401Y-86942075D01*
X184725575Y-87049906D01*
X184740347Y-87081888D01*
X184814143Y-87186175D01*
X184912297Y-87272693D01*
X185016339Y-87328129D01*
X185099138Y-87340515D01*
X185152174Y-87329338D01*
X185176003Y-87299898D01*
X185180116Y-87233868D01*
X185178100Y-87188030D01*
X185172741Y-87085417D01*
X185168468Y-87000881D01*
X185167566Y-86982170D01*
X185187228Y-86830501D01*
X185253502Y-86697945D01*
X185354963Y-86592073D01*
X185480190Y-86520452D01*
X185617758Y-86490654D01*
X185756246Y-86510246D01*
X185828109Y-86544471D01*
X185972883Y-86659615D01*
X186068324Y-86801544D01*
X186109629Y-86914382D01*
X186135401Y-87019251D01*
X186140134Y-87101245D01*
X186123475Y-87192911D01*
X186105909Y-87256347D01*
X186021100Y-87451305D01*
X185895882Y-87602599D01*
X185736430Y-87705296D01*
X185548922Y-87754459D01*
X185477860Y-87758105D01*
X185369611Y-87750181D01*
X185279710Y-87729982D01*
X185248131Y-87715324D01*
X185168188Y-87674619D01*
X185098566Y-87651379D01*
X185035597Y-87626419D01*
X185011471Y-87599148D01*
X184986330Y-87570495D01*
X184970559Y-87568080D01*
X184916058Y-87543542D01*
X184839479Y-87478827D01*
X184752608Y-87387288D01*
X184667233Y-87282278D01*
X184595141Y-87177149D01*
X184551174Y-87093018D01*
X184519915Y-87026339D01*
X184496631Y-86982170D01*
X184467770Y-86909577D01*
X184441605Y-86811655D01*
X184437683Y-86792145D01*
X184414745Y-86679531D01*
X184386250Y-86551586D01*
X184377248Y-86513513D01*
X184357086Y-86382182D01*
X184365223Y-86247710D01*
X184377129Y-86180970D01*
X184400851Y-86060705D01*
X184421886Y-85949110D01*
X184430858Y-85898554D01*
X184455965Y-85815925D01*
X184492189Y-85760116D01*
X184492238Y-85760075D01*
X184530617Y-85705439D01*
X184536408Y-85678436D01*
X184554241Y-85631237D01*
X184600839Y-85551935D01*
X184661654Y-85463917D01*
X184784571Y-85318794D01*
X184924518Y-85187904D01*
X185068942Y-85080378D01*
X185205287Y-85005352D01*
X185320999Y-84971958D01*
X185339114Y-84971073D01*
X185406156Y-84961521D01*
X185436175Y-84944016D01*
X185479076Y-84922921D01*
X185566919Y-84906859D01*
X185681415Y-84897088D01*
X185804278Y-84894865D01*
X185917219Y-84901444D01*
G37*
D13*
%TO.C,J9*%
X158120000Y-80620000D02*
X159500000Y-80620000D01*
X158120000Y-82000000D02*
X158120000Y-80620000D01*
X158120000Y-83270000D02*
X158120000Y-83380000D01*
X158120000Y-83270000D02*
X160880000Y-83270000D01*
X158120000Y-83380000D02*
X160880000Y-83380000D01*
X160880000Y-83270000D02*
X160880000Y-83380000D01*
%TO.C,D1*%
X137500000Y-86920000D02*
X137500000Y-87570000D01*
X137500000Y-92460000D02*
X137500000Y-91810000D01*
X138620000Y-88170000D02*
X136380000Y-88170000D01*
X138620000Y-88290000D02*
X136380000Y-88290000D01*
X138620000Y-88410000D02*
X136380000Y-88410000D01*
X138620000Y-87570000D02*
X136380000Y-87570000D01*
X136380000Y-91810000D01*
X138620000Y-91810000D01*
X138620000Y-87570000D01*
%TO.C,J3*%
X150120000Y-91620000D02*
X151500000Y-91620000D01*
X150120000Y-93000000D02*
X150120000Y-91620000D01*
X150120000Y-94270000D02*
X150120000Y-94380000D01*
X150120000Y-94270000D02*
X152880000Y-94270000D01*
X150120000Y-94380000D02*
X152880000Y-94380000D01*
X152880000Y-94270000D02*
X152880000Y-94380000D01*
%TD*%
M02*
