%TF.GenerationSoftware,KiCad,Pcbnew,9.0.9*%
%TF.CreationDate,2026-08-30T17:26:37+02:00*%
%TF.ProjectId,PUS_K9,5055535f-4b39-42e6-9b69-6361645f7063,0.3*%
%TF.SameCoordinates,Original*%
%TF.FileFunction,Copper,L2,Bot*%
%TF.FilePolarity,Positive*%
%FSLAX46Y46*%
G04 Gerber Fmt 4.6, Leading zero omitted, Abs format (unit mm)*
G04 Created by KiCad (PCBNEW 9.0.9) date 2026-08-30 17:26:37*
%MOMM*%
%LPD*%
G01*
G04 APERTURE LIST*
G04 Aperture macros list*
%AMRoundRect*
0 Rectangle with rounded corners*
0 $1 Rounding radius*
0 $2 $3 $4 $5 $6 $7 $8 $9 X,Y pos of 4 corners*
0 Add a 4 corners polygon primitive as box body*
4,1,4,$2,$3,$4,$5,$6,$7,$8,$9,$2,$3,0*
0 Add four circle primitives for the rounded corners*
1,1,$1+$1,$2,$3*
1,1,$1+$1,$4,$5*
1,1,$1+$1,$6,$7*
1,1,$1+$1,$8,$9*
0 Add four rect primitives between the rounded corners*
20,1,$1+$1,$2,$3,$4,$5,0*
20,1,$1+$1,$4,$5,$6,$7,0*
20,1,$1+$1,$6,$7,$8,$9,0*
20,1,$1+$1,$8,$9,$2,$3,0*%
G04 Aperture macros list end*
%TA.AperFunction,EtchedComponent*%
%ADD10C,0.000000*%
%TD*%
%TA.AperFunction,ComponentPad*%
%ADD11R,1.700000X1.700000*%
%TD*%
%TA.AperFunction,ComponentPad*%
%ADD12C,1.400000*%
%TD*%
%TA.AperFunction,ComponentPad*%
%ADD13R,1.800000X1.800000*%
%TD*%
%TA.AperFunction,ComponentPad*%
%ADD14C,1.800000*%
%TD*%
%TA.AperFunction,ComponentPad*%
%ADD15C,1.600000*%
%TD*%
%TA.AperFunction,ComponentPad*%
%ADD16R,1.600000X1.600000*%
%TD*%
%TA.AperFunction,ComponentPad*%
%ADD17C,4.000000*%
%TD*%
%TA.AperFunction,ComponentPad*%
%ADD18RoundRect,0.250000X-0.550000X-0.550000X0.550000X-0.550000X0.550000X0.550000X-0.550000X0.550000X0*%
%TD*%
%TA.AperFunction,ComponentPad*%
%ADD19C,1.700000*%
%TD*%
%TA.AperFunction,ComponentPad*%
%ADD20RoundRect,0.250000X-0.550000X0.550000X-0.550000X-0.550000X0.550000X-0.550000X0.550000X0.550000X0*%
%TD*%
%TA.AperFunction,Conductor*%
%ADD21C,0.200000*%
%TD*%
G04 APERTURE END LIST*
D10*
%TA.AperFunction,EtchedComponent*%
%TO.C,G\u002A\u002A\u002A*%
G36*
X114948850Y-84103947D02*
G01*
X115055905Y-84146823D01*
X115140140Y-84225714D01*
X115189023Y-84334956D01*
X115190021Y-84468881D01*
X115177845Y-84518043D01*
X115113472Y-84638360D01*
X115016810Y-84712465D01*
X114899358Y-84737059D01*
X114772611Y-84708838D01*
X114648068Y-84624501D01*
X114601076Y-84552932D01*
X114576810Y-84438910D01*
X114588910Y-84319140D01*
X114638016Y-84219319D01*
X114716418Y-84148911D01*
X114831510Y-84102755D01*
X114948850Y-84103947D01*
G37*
%TD.AperFunction*%
%TA.AperFunction,EtchedComponent*%
G36*
X113843098Y-84118740D02*
G01*
X113941738Y-84179115D01*
X114008583Y-84270430D01*
X114036003Y-84382102D01*
X114016371Y-84503549D01*
X113942058Y-84624187D01*
X113881591Y-84684337D01*
X113810181Y-84722583D01*
X113716119Y-84732102D01*
X113699341Y-84731950D01*
X113618127Y-84721466D01*
X113553556Y-84684884D01*
X113479921Y-84608780D01*
X113443570Y-84563136D01*
X113393116Y-84483236D01*
X113373317Y-84425819D01*
X113373365Y-84421415D01*
X113403918Y-84306833D01*
X113480199Y-84202679D01*
X113586417Y-84130812D01*
X113720291Y-84099888D01*
X113843098Y-84118740D01*
G37*
%TD.AperFunction*%
%TA.AperFunction,EtchedComponent*%
G36*
X115249486Y-92755172D02*
G01*
X115341614Y-92766473D01*
X115402618Y-92785769D01*
X115438908Y-92814326D01*
X115456894Y-92853413D01*
X115462985Y-92904295D01*
X115463592Y-92968239D01*
X115463558Y-92974950D01*
X115445191Y-93092510D01*
X115385927Y-93185027D01*
X115308262Y-93268828D01*
X114317036Y-93269015D01*
X114168540Y-93269382D01*
X113759983Y-93274925D01*
X113408199Y-93287994D01*
X113108471Y-93309697D01*
X112856081Y-93341143D01*
X112646312Y-93383440D01*
X112474446Y-93437695D01*
X112335765Y-93505018D01*
X112225553Y-93586515D01*
X112139091Y-93683296D01*
X112071662Y-93796469D01*
X112053589Y-93837630D01*
X112006352Y-94020995D01*
X111993716Y-94228264D01*
X112015666Y-94436340D01*
X112072187Y-94622127D01*
X112117946Y-94745354D01*
X112124424Y-94826725D01*
X112089245Y-94870792D01*
X112010893Y-94884040D01*
X111926181Y-94875205D01*
X111782993Y-94814653D01*
X111665466Y-94702522D01*
X111582295Y-94545675D01*
X111564272Y-94486765D01*
X111535287Y-94278059D01*
X111545762Y-94047985D01*
X111592437Y-93815074D01*
X111672049Y-93597858D01*
X111781336Y-93414866D01*
X111781972Y-93414041D01*
X111894673Y-93288645D01*
X112029004Y-93179694D01*
X112189564Y-93086058D01*
X112380953Y-93006612D01*
X112607771Y-92940228D01*
X112874618Y-92885780D01*
X113186094Y-92842139D01*
X113546798Y-92808179D01*
X113961330Y-92782772D01*
X114434290Y-92764792D01*
X114441546Y-92764581D01*
X114722265Y-92756571D01*
X114946221Y-92751488D01*
X115119825Y-92750600D01*
X115249486Y-92755172D01*
G37*
%TD.AperFunction*%
%TA.AperFunction,EtchedComponent*%
G36*
X114015152Y-88439476D02*
G01*
X114293065Y-88505968D01*
X114549641Y-88622762D01*
X114778428Y-88787856D01*
X114972972Y-88999249D01*
X115126820Y-89254940D01*
X115175310Y-89360781D01*
X115239225Y-89520257D01*
X115286097Y-89674569D01*
X115318372Y-89837382D01*
X115338496Y-90022359D01*
X115348914Y-90243166D01*
X115352072Y-90513467D01*
X115350485Y-90712662D01*
X115336864Y-91050941D01*
X115308721Y-91332409D01*
X115265322Y-91560421D01*
X115205933Y-91738331D01*
X115129820Y-91869493D01*
X115036250Y-91957261D01*
X115010265Y-91973258D01*
X114944184Y-91994039D01*
X114871960Y-91973481D01*
X114849502Y-91962837D01*
X114816375Y-91938903D01*
X114801359Y-91900512D01*
X114800573Y-91831480D01*
X114810137Y-91715621D01*
X114830617Y-91495262D01*
X114442429Y-91495470D01*
X114345909Y-91496061D01*
X114117385Y-91500279D01*
X113853949Y-91508011D01*
X113569636Y-91518614D01*
X113278480Y-91531447D01*
X112994518Y-91545867D01*
X112731784Y-91561234D01*
X112504313Y-91576905D01*
X112326141Y-91592239D01*
X112312319Y-91593625D01*
X112197330Y-91604658D01*
X112120065Y-91612071D01*
X111980102Y-91622999D01*
X111882440Y-91626393D01*
X111817089Y-91622234D01*
X111774061Y-91610504D01*
X111743367Y-91591185D01*
X111735953Y-91584027D01*
X111711758Y-91534096D01*
X111698684Y-91444518D01*
X111694764Y-91303651D01*
X111697930Y-91156613D01*
X111707165Y-91069264D01*
X112108271Y-91069264D01*
X112117357Y-91119232D01*
X112146287Y-91140762D01*
X112197330Y-91142904D01*
X112272756Y-91134707D01*
X112477071Y-91112852D01*
X112974607Y-91074036D01*
X113521051Y-91049493D01*
X114107452Y-91039686D01*
X114889092Y-91036725D01*
X114910949Y-90774332D01*
X114914582Y-90719313D01*
X114916700Y-90518819D01*
X114905956Y-90295819D01*
X114884258Y-90071720D01*
X114853517Y-89867932D01*
X114815641Y-89705861D01*
X114781229Y-89605711D01*
X114660864Y-89370017D01*
X114501776Y-89183474D01*
X114306739Y-89047695D01*
X114078526Y-88964290D01*
X113819911Y-88934872D01*
X113533667Y-88961050D01*
X113325609Y-89014482D01*
X113062288Y-89136063D01*
X112831084Y-89312216D01*
X112632224Y-89542795D01*
X112554329Y-89658120D01*
X112425778Y-89883710D01*
X112322631Y-90123870D01*
X112238460Y-90394757D01*
X112166834Y-90712532D01*
X112140547Y-90847823D01*
X112116758Y-90981811D01*
X112108271Y-91069264D01*
X111707165Y-91069264D01*
X111746156Y-90700478D01*
X111849558Y-90248354D01*
X112004380Y-89814123D01*
X112206864Y-89411666D01*
X112231421Y-89372244D01*
X112336005Y-89230456D01*
X112468805Y-89077170D01*
X112616961Y-88925098D01*
X112767610Y-88786948D01*
X112907889Y-88675431D01*
X113024938Y-88603256D01*
X113117926Y-88561812D01*
X113421129Y-88465397D01*
X113722356Y-88425285D01*
X114015152Y-88439476D01*
G37*
%TD.AperFunction*%
%TA.AperFunction,EtchedComponent*%
G36*
X114318585Y-84897088D02*
G01*
X114433081Y-84906859D01*
X114520924Y-84922921D01*
X114563825Y-84944016D01*
X114593844Y-84961521D01*
X114660886Y-84971073D01*
X114679001Y-84971958D01*
X114794713Y-85005352D01*
X114931058Y-85080378D01*
X115075482Y-85187904D01*
X115215429Y-85318794D01*
X115338346Y-85463917D01*
X115399161Y-85551935D01*
X115445759Y-85631237D01*
X115463592Y-85678436D01*
X115469383Y-85705439D01*
X115507762Y-85760075D01*
X115507811Y-85760116D01*
X115544035Y-85815925D01*
X115569142Y-85898554D01*
X115578114Y-85949110D01*
X115599149Y-86060705D01*
X115622871Y-86180970D01*
X115634777Y-86247710D01*
X115642914Y-86382182D01*
X115622752Y-86513513D01*
X115613750Y-86551586D01*
X115585255Y-86679531D01*
X115562317Y-86792145D01*
X115558395Y-86811655D01*
X115532230Y-86909577D01*
X115503369Y-86982170D01*
X115480085Y-87026339D01*
X115448826Y-87093018D01*
X115404859Y-87177149D01*
X115332767Y-87282278D01*
X115247392Y-87387288D01*
X115160521Y-87478827D01*
X115083942Y-87543542D01*
X115029441Y-87568080D01*
X115013670Y-87570495D01*
X114988529Y-87599148D01*
X114964403Y-87626419D01*
X114901434Y-87651379D01*
X114831812Y-87674619D01*
X114751869Y-87715324D01*
X114720290Y-87729982D01*
X114630389Y-87750181D01*
X114522140Y-87758105D01*
X114451078Y-87754459D01*
X114263570Y-87705296D01*
X114104118Y-87602599D01*
X113978900Y-87451305D01*
X113894091Y-87256347D01*
X113876525Y-87192911D01*
X113859866Y-87101245D01*
X113864599Y-87019251D01*
X113890371Y-86914382D01*
X113931676Y-86801544D01*
X114027117Y-86659615D01*
X114171891Y-86544471D01*
X114243754Y-86510246D01*
X114382242Y-86490654D01*
X114519810Y-86520452D01*
X114645037Y-86592073D01*
X114746498Y-86697945D01*
X114812772Y-86830501D01*
X114832434Y-86982170D01*
X114831532Y-87000881D01*
X114827259Y-87085417D01*
X114821900Y-87188030D01*
X114819884Y-87233868D01*
X114823997Y-87299898D01*
X114847826Y-87329338D01*
X114900862Y-87340515D01*
X114983661Y-87328129D01*
X115087703Y-87272693D01*
X115185857Y-87186175D01*
X115259653Y-87081888D01*
X115274425Y-87049906D01*
X115314599Y-86942075D01*
X115356284Y-86808299D01*
X115393556Y-86669896D01*
X115420495Y-86548186D01*
X115431175Y-86464488D01*
X115420990Y-86394457D01*
X115389224Y-86306134D01*
X115383945Y-86295700D01*
X115338742Y-86204721D01*
X115290304Y-86105309D01*
X115228228Y-86018804D01*
X115128443Y-85926684D01*
X115011023Y-85844490D01*
X114894958Y-85785462D01*
X114799235Y-85762843D01*
X114758356Y-85760766D01*
X114655844Y-85748747D01*
X114541543Y-85729586D01*
X114475820Y-85719202D01*
X114314127Y-85713109D01*
X114117582Y-85731685D01*
X113991875Y-85752515D01*
X113837060Y-85784773D01*
X113684502Y-85822238D01*
X113549237Y-85860894D01*
X113446303Y-85896728D01*
X113390736Y-85925725D01*
X113360874Y-85941311D01*
X113291684Y-85952868D01*
X113245769Y-85961236D01*
X113183292Y-86000374D01*
X113154504Y-86024943D01*
X113085976Y-86047881D01*
X113053106Y-86054024D01*
X113002759Y-86092087D01*
X112991918Y-86105755D01*
X112933740Y-86152692D01*
X112850749Y-86202774D01*
X112794048Y-86239952D01*
X112690732Y-86324526D01*
X112565199Y-86439469D01*
X112427815Y-86574245D01*
X112288946Y-86718316D01*
X112158959Y-86861146D01*
X112048220Y-86992199D01*
X111967097Y-87100936D01*
X111964796Y-87104371D01*
X111901076Y-87194512D01*
X111849494Y-87258630D01*
X111821023Y-87283043D01*
X111801664Y-87298903D01*
X111778364Y-87354302D01*
X111744289Y-87428028D01*
X111687836Y-87505546D01*
X111678179Y-87516652D01*
X111613312Y-87605388D01*
X111554772Y-87704239D01*
X111539853Y-87730575D01*
X111468946Y-87811004D01*
X111389279Y-87849883D01*
X111316514Y-87838395D01*
X111305788Y-87830584D01*
X111283043Y-87795400D01*
X111290385Y-87773601D01*
X111321767Y-87704103D01*
X111371942Y-87600427D01*
X111434468Y-87475174D01*
X111502902Y-87340946D01*
X111570801Y-87210346D01*
X111631724Y-87095976D01*
X111679227Y-87010438D01*
X111706869Y-86966335D01*
X111717319Y-86952111D01*
X111760111Y-86881725D01*
X111807180Y-86792145D01*
X111817441Y-86771819D01*
X111883937Y-86656598D01*
X111956048Y-86550056D01*
X111980911Y-86515929D01*
X112025485Y-86446777D01*
X112043143Y-86406341D01*
X112047047Y-86393703D01*
X112080445Y-86340134D01*
X112136868Y-86268380D01*
X112162772Y-86236587D01*
X112211820Y-86165632D01*
X112231880Y-86119025D01*
X112237007Y-86102639D01*
X112279500Y-86040694D01*
X112357380Y-85951033D01*
X112461460Y-85842516D01*
X112582552Y-85723999D01*
X112711469Y-85604339D01*
X112839026Y-85492394D01*
X112956035Y-85397020D01*
X113053309Y-85327076D01*
X113133463Y-85276048D01*
X113332706Y-85156492D01*
X113505835Y-85067129D01*
X113669836Y-85000731D01*
X113841697Y-84950071D01*
X114038404Y-84907921D01*
X114082781Y-84901444D01*
X114195722Y-84894865D01*
X114318585Y-84897088D01*
G37*
%TD.AperFunction*%
%TD*%
D11*
%TO.P,J8,1,Pin_1*%
%TO.N,PB1*%
X170000000Y-91000000D03*
%TD*%
D12*
%TO.P,R2,1*%
%TO.N,Net-(D1-K)*%
X142500000Y-85380000D03*
%TO.P,R2,2*%
%TO.N,D-*%
X142500000Y-93000000D03*
%TD*%
%TO.P,R3,1*%
%TO.N,Net-(D2-K)*%
X154500000Y-85380000D03*
%TO.P,R3,2*%
%TO.N,D+*%
X154500000Y-93000000D03*
%TD*%
%TO.P,R4,1*%
%TO.N,+5V*%
X173000000Y-84500000D03*
%TO.P,R4,2*%
%TO.N,SW*%
X173000000Y-92120000D03*
%TD*%
D13*
%TO.P,D3,1,K*%
%TO.N,Net-(D3-K)*%
X173000000Y-97000000D03*
D14*
%TO.P,D3,2,A*%
%TO.N,PB0*%
X170460000Y-97000000D03*
%TD*%
D11*
%TO.P,J6,1,Pin_1*%
%TO.N,GND*%
X155000000Y-100000000D03*
%TD*%
%TO.P,J10,1,Pin_1*%
%TO.N,GND*%
X178500000Y-102500000D03*
%TD*%
%TO.P,J2,1,Pin_1*%
%TO.N,+5V*%
X166000000Y-79500000D03*
%TD*%
D15*
%TO.P,C1,1*%
%TO.N,+5V*%
X166000000Y-98000000D03*
%TO.P,C1,2*%
%TO.N,GND*%
X161000000Y-98000000D03*
%TD*%
D12*
%TO.P,R5,1*%
%TO.N,Net-(D3-K)*%
X175880000Y-97000000D03*
%TO.P,R5,2*%
%TO.N,GND*%
X183500000Y-97000000D03*
%TD*%
D11*
%TO.P,J5,1,Pin_1*%
%TO.N,SW*%
X177500000Y-80500000D03*
%TD*%
D12*
%TO.P,R1,1*%
%TO.N,+5V*%
X132000000Y-93310000D03*
%TO.P,R1,2*%
%TO.N,Net-(D1-K)*%
X132000000Y-85690000D03*
%TD*%
D16*
%TO.P,J1,1,VBUS*%
%TO.N,+5V*%
X123360000Y-90750000D03*
D15*
%TO.P,J1,2,D-*%
%TO.N,Net-(D1-K)*%
X123360000Y-88250000D03*
%TO.P,J1,3,D+*%
%TO.N,Net-(D2-K)*%
X121360000Y-88250000D03*
%TO.P,J1,4,GND*%
%TO.N,GND*%
X121360000Y-90750000D03*
D17*
%TO.P,J1,5,Shield*%
X118500000Y-95500000D03*
X118500000Y-83500000D03*
%TD*%
D18*
%TO.P,U1,1,~{RESET}/PB5*%
%TO.N,PB5*%
X159380000Y-85880000D03*
D15*
%TO.P,U1,2,XTAL1/PB3*%
%TO.N,D-*%
X159380000Y-88420000D03*
%TO.P,U1,3,XTAL2/PB4*%
%TO.N,D+*%
X159380000Y-90960000D03*
%TO.P,U1,4,GND*%
%TO.N,GND*%
X159380000Y-93500000D03*
%TO.P,U1,5,AREF/PB0*%
%TO.N,PB0*%
X167000000Y-93500000D03*
%TO.P,U1,6,PB1*%
%TO.N,PB1*%
X167000000Y-90960000D03*
%TO.P,U1,7,PB2*%
%TO.N,SW*%
X167000000Y-88420000D03*
%TO.P,U1,8,VCC*%
%TO.N,+5V*%
X167000000Y-85880000D03*
%TD*%
D11*
%TO.P,SW1,1,1*%
%TO.N,GND*%
X177500000Y-90500000D03*
D19*
%TO.P,SW1,2,2*%
%TO.N,SW*%
X177500000Y-87960000D03*
%TD*%
D20*
%TO.P,D2,1,K*%
%TO.N,Net-(D2-K)*%
X147500000Y-85380000D03*
D15*
%TO.P,D2,2,A*%
%TO.N,GND*%
X147500000Y-93000000D03*
%TD*%
D11*
%TO.P,J4,1,Pin_1*%
%TO.N,D-*%
X142500000Y-96000000D03*
%TD*%
%TO.P,J9,1,Pin_1*%
%TO.N,PB5*%
X159500000Y-82000000D03*
%TD*%
D20*
%TO.P,D1,1,K*%
%TO.N,Net-(D1-K)*%
X137500000Y-85880000D03*
D15*
%TO.P,D1,2,A*%
%TO.N,GND*%
X137500000Y-93500000D03*
%TD*%
D11*
%TO.P,J3,1,Pin_1*%
%TO.N,D+*%
X151500000Y-93000000D03*
%TD*%
D21*
%TO.N,*%
X114462978Y-86372374D02*
X114372374Y-86372374D01*
%TO.N,GND*%
X119750000Y-90750000D02*
X118500000Y-92000000D01*
X178000000Y-102000000D02*
X178000000Y-100500000D01*
X120427500Y-95500000D02*
X124500000Y-95500000D01*
X159380000Y-95120000D02*
X159380000Y-94880000D01*
X159380000Y-93500000D02*
X159380000Y-94880000D01*
X161000000Y-100000000D02*
X161500000Y-100500000D01*
X157000000Y-98000000D02*
X161000000Y-98000000D01*
X118500000Y-92000000D02*
X118500000Y-95500000D01*
X125000000Y-96000000D02*
X137500000Y-96000000D01*
X141000000Y-99500000D02*
X137500000Y-96000000D01*
X158000000Y-96500000D02*
X159380000Y-95120000D01*
X178500000Y-102500000D02*
X178000000Y-102000000D01*
X179000000Y-99500000D02*
X179000000Y-92000000D01*
X121360000Y-90750000D02*
X119750000Y-90750000D01*
X179000000Y-92000000D02*
X177500000Y-90500000D01*
X124500000Y-95500000D02*
X125000000Y-96000000D01*
X183500000Y-97000000D02*
X181000000Y-99500000D01*
X118500000Y-83500000D02*
X118500000Y-89500000D01*
X181000000Y-99500000D02*
X179000000Y-99500000D01*
X178000000Y-100500000D02*
X179000000Y-99500000D01*
X147500000Y-93000000D02*
X147500000Y-96500000D01*
X147500000Y-96500000D02*
X158000000Y-96500000D01*
X147500000Y-96500000D02*
X144500000Y-99500000D01*
X118500000Y-89500000D02*
X119750000Y-90750000D01*
X144500000Y-99500000D02*
X141000000Y-99500000D01*
X155000000Y-100000000D02*
X157000000Y-98000000D01*
X161000000Y-98000000D02*
X161000000Y-100000000D01*
X161500000Y-100500000D02*
X178000000Y-100500000D01*
X161000000Y-96500000D02*
X159380000Y-94880000D01*
X161000000Y-98000000D02*
X161000000Y-96500000D01*
X137500000Y-96000000D02*
X137500000Y-93500000D01*
%TO.N,Net-(D1-K)*%
X138620000Y-85380000D02*
X142500000Y-85380000D01*
X138120000Y-85880000D02*
X138620000Y-85380000D01*
X132000000Y-85690000D02*
X137310000Y-85690000D01*
X137500000Y-85880000D02*
X138120000Y-85880000D01*
X123360000Y-88250000D02*
X129440000Y-88250000D01*
X137310000Y-85690000D02*
X137500000Y-85880000D01*
X132000000Y-85690000D02*
X129440000Y-88250000D01*
%TO.N,Net-(D2-K)*%
X147500000Y-84500000D02*
X146000000Y-83000000D01*
X146000000Y-83000000D02*
X127000000Y-83000000D01*
X124000000Y-84000000D02*
X126000000Y-84000000D01*
X121360000Y-88250000D02*
X121360000Y-86640000D01*
X154500000Y-85380000D02*
X147500000Y-85380000D01*
X121360000Y-86640000D02*
X124000000Y-84000000D01*
X126000000Y-84000000D02*
X127000000Y-83000000D01*
X147500000Y-85380000D02*
X147500000Y-84500000D01*
%TO.N,+5V*%
X139000000Y-90000000D02*
X133500000Y-90000000D01*
X166000000Y-98000000D02*
X163500000Y-95500000D01*
X172120000Y-85380000D02*
X167500000Y-85380000D01*
X166000000Y-79500000D02*
X166000000Y-83000000D01*
X132000000Y-91500000D02*
X132000000Y-93310000D01*
X166000000Y-79500000D02*
X165500000Y-80000000D01*
X133500000Y-90000000D02*
X132000000Y-91500000D01*
X156500000Y-81500000D02*
X156500000Y-86000000D01*
X164620000Y-85880000D02*
X167000000Y-85880000D01*
X165500000Y-80000000D02*
X158000000Y-80000000D01*
X156500000Y-86000000D02*
X155500000Y-87000000D01*
X163500000Y-95500000D02*
X163500000Y-87000000D01*
X123360000Y-90750000D02*
X131250000Y-90750000D01*
X131250000Y-90750000D02*
X132000000Y-91500000D01*
X158000000Y-80000000D02*
X156500000Y-81500000D01*
X167500000Y-85380000D02*
X167000000Y-85880000D01*
X142000000Y-87000000D02*
X139000000Y-90000000D01*
X155500000Y-87000000D02*
X142000000Y-87000000D01*
X167000000Y-84000000D02*
X166000000Y-83000000D01*
X167000000Y-85880000D02*
X167000000Y-84000000D01*
X173000000Y-84500000D02*
X172120000Y-85380000D01*
X163500000Y-87000000D02*
X164620000Y-85880000D01*
%TO.N,PB0*%
X170460000Y-96960000D02*
X170460000Y-97000000D01*
X167000000Y-93500000D02*
X170460000Y-96960000D01*
%TO.N,D-*%
X142500000Y-96000000D02*
X142500000Y-93000000D01*
X159380000Y-88420000D02*
X145080000Y-88420000D01*
X142500000Y-91000000D02*
X142500000Y-93000000D01*
X145080000Y-88420000D02*
X142500000Y-91000000D01*
%TO.N,SW*%
X175040000Y-87960000D02*
X177500000Y-87960000D01*
X173000000Y-92000000D02*
X174580000Y-90420000D01*
X167000000Y-88420000D02*
X174580000Y-88420000D01*
X177500000Y-87960000D02*
X177500000Y-80500000D01*
X174580000Y-90420000D02*
X174580000Y-88420000D01*
X174580000Y-88420000D02*
X175040000Y-87960000D01*
%TO.N,D+*%
X156540000Y-90960000D02*
X159380000Y-90960000D01*
X151500000Y-93000000D02*
X154500000Y-93000000D01*
X154500000Y-93000000D02*
X156540000Y-90960000D01*
%TO.N,PB1*%
X169960000Y-90960000D02*
X170000000Y-91000000D01*
X167000000Y-90960000D02*
X169960000Y-90960000D01*
%TO.N,PB5*%
X159380000Y-85880000D02*
X159380000Y-82120000D01*
X159380000Y-82120000D02*
X159500000Y-82000000D01*
%TO.N,Net-(D3-K)*%
X173000000Y-97000000D02*
X175880000Y-97000000D01*
%TD*%
M02*
