M48
; DRILL file {KiCad 9.0.9} date 2026-08-30T17:27:21+0200
; FORMAT={-:-/ absolute / metric / decimal}
; #@! TF.CreationDate,2026-08-30T17:27:21+02:00
; #@! TF.GenerationSoftware,Kicad,Pcbnew,9.0.9
; #@! TF.FileFunction,Plated,1,2,PTH
FMAT,2
METRIC
; #@! TA.AperFunction,Plated,PTH,ComponentDrill
T1C0.700
; #@! TA.AperFunction,Plated,PTH,ComponentDrill
T2C0.800
; #@! TA.AperFunction,Plated,PTH,ComponentDrill
T3C0.900
; #@! TA.AperFunction,Plated,PTH,ComponentDrill
T4C0.950
; #@! TA.AperFunction,Plated,PTH,ComponentDrill
T5C1.000
; #@! TA.AperFunction,Plated,PTH,ComponentDrill
T6C2.300
%
G90
G05
T1
X132.0Y-85.69
X132.0Y-93.31
X142.5Y-85.38
X142.5Y-93.0
X154.5Y-85.38
X154.5Y-93.0
X173.0Y-84.5
X173.0Y-92.12
X175.88Y-97.0
X183.5Y-97.0
T2
X137.5Y-85.88
X137.5Y-93.5
X147.5Y-85.38
X147.5Y-93.0
X159.38Y-85.88
X159.38Y-88.42
X159.38Y-90.96
X159.38Y-93.5
X161.0Y-98.0
X166.0Y-98.0
X167.0Y-85.88
X167.0Y-88.42
X167.0Y-90.96
X167.0Y-93.5
T3
X170.46Y-97.0
X173.0Y-97.0
T4
X121.36Y-88.25
X121.36Y-90.75
X123.36Y-88.25
X123.36Y-90.75
T5
X142.5Y-96.0
X151.5Y-93.0
X155.0Y-100.0
X159.5Y-82.0
X166.0Y-79.5
X170.0Y-91.0
X177.5Y-80.5
X177.5Y-87.96
X177.5Y-90.5
X178.5Y-102.5
T6
X118.5Y-83.5
X118.5Y-95.5
M30
